<svg xmlns="http://www.w3.org/2000/svg" width="408" height="459" fill="none" viewBox="0 0 408 459">
  <path fill="#A6DAFF" d="M408 116.478V278.55c0 64.326-53.827 116.477-120.219 116.477h-12.16l-62.096 60.124A13.664 13.664 0 01204 459c-3.445 0-6.566-1.217-8.958-3.259l-1.054-1.022-.04-.039-61.569-59.653h-12.2C53.827 395.027 0 342.876 0 278.55V116.478C0 52.152 53.827 0 120.219 0h167.562C354.173 0 408 52.152 408 116.478z"/>
  <path fill="#fff" d="M330.638 229.898c0 71.94-58.322 101.568-130.259 101.568-71.935 0-130.254-29.628-130.254-101.568h260.513z"/>
  <path fill="#765E3A" d="M140.847 149.5c17.1 0 30.962.562 30.962-16.538S157.947 102 140.847 102s-30.962 13.862-30.962 30.962 13.862 16.538 30.962 16.538zM257.925 149.5c17.1 0 30.963.562 30.963-16.538S275.025 102 257.925 102s-30.962 13.862-30.962 30.962 13.862 16.538 30.962 16.538z"/>
</svg>
