<svg xmlns="http://www.w3.org/2000/svg" width="1414" height="1029" fill="none" viewBox="0 0 1414 1029">
  <path fill="#525252" d="M647.167 1016.01c335.722-18.527 606.963-50.101 605.823-70.518-1.14-20.418-274.21-21.948-609.932-3.416-335.723 18.532-606.96 50.106-605.825 70.524 1.135 20.42 274.211 21.95 609.934 3.41z" opacity=".1"/>
  <path fill="#FDFDFD" d="M15.265 530.944c22.381 91.628 69.742 170.821 144.602 209.192 155.563 79.788 506.399 38.638 768.245-8.603 135.408-24.388 254.468-91.794 340.958-186.721L15.265 530.944zM1388.36 99.672h-143.68a11.971 11.971 0 01-8.7-3.344 11.834 11.834 0 01-2.69-3.908c-.63-1.469-.95-3.048-.95-4.644s.32-3.175.95-4.644c.62-1.47 1.54-2.799 2.69-3.909a11.97 11.97 0 018.7-3.343h24.82c-1.6.052-3.19-.217-4.69-.791a12.093 12.093 0 01-4.01-2.552 11.985 11.985 0 01-2.69-3.909 11.946 11.946 0 010-9.288c.63-1.47 1.54-2.799 2.69-3.908a12.093 12.093 0 014.01-2.552c1.5-.575 3.09-.844 4.69-.792h-17.73a11.97 11.97 0 01-8.7-3.343 11.838 11.838 0 01-2.69-3.908c-.62-1.47-.95-3.049-.95-4.645 0-1.596.33-3.175.95-4.644.62-1.47 1.54-2.798 2.69-3.908a11.973 11.973 0 018.7-3.343h74.98c-16.65-7.411-36.04-12.69-58.56-15.443-204.38-25.175-277.378-8.527-303.132 8.603-31.828 21.114-67.221 36.646-105.084 44.132-126.168 24.934-362.09 54.931-575.913-9.605C177.793 23.906 98.782 78.114 51.434 168.7H1413.31c-1.78-26.33-7.1-50.654-16.88-71.921a12.737 12.737 0 01-8.07 2.893zM876.268 388.65l-1.872-.113-19.553-1.105-187.355-10.493-20.241-1.142L348.9 359.098l-83.618-4.707-13.228-.737-11.751-.66L3.081 339.709a580.329 580.329 0 005.576 159.88l199.614 6.994 15.825.571 2.801.087 94.759 3.289 5.092.163 10.922.381 95.485 3.35 13.088.471 45.603 1.597h.867l6.711.242 22.853.8 20.052.697 38.191 1.331h.803l3.399.13 3.615.126h.79l60.881 2.131 17.061.607h.711l8.212.282 1.53.063h.61l7.22.253 22.036.773 8.275.292 10.632.369h.395l14.588.521 42.194 1.483 11.611.395h1.271l56.248 1.966 32.668 1.141 40.651 1.434 6.519.229 10.529.369 38.271 1.331 288.68 10.15a566.47 566.47 0 0087.63-128.057l-481.282-26.9zm-542.783 88.823a12.689 12.689 0 01-8.277-3.044 12.039 12.039 0 01-2.622-3.16 11.527 11.527 0 01-1.516-5.686c0-2.324.715-4.591 2.05-6.496a12.558 12.558 0 015.496-4.388 12.601 12.601 0 014.869-.953h24.825a11.996 11.996 0 01-8.81-3.286 11.964 11.964 0 01-2.735-3.93 11.916 11.916 0 01-.962-4.687c0-1.61.328-3.203.962-4.687a11.954 11.954 0 0111.545-7.217h-17.735a11.939 11.939 0 01-9.406-3.88 11.851 11.851 0 01.819-16.779 11.936 11.936 0 018.587-3.067h143.66a12.01 12.01 0 014.737.743 11.928 11.928 0 016.794 6.463c.634 1.48.963 3.074.963 4.684a11.88 11.88 0 01-3.698 8.607 11.92 11.92 0 01-4.059 2.539 12.01 12.01 0 01-4.737.744h17.735a11.899 11.899 0 014.74.743 11.921 11.921 0 017.767 11.157c0 1.613-.329 3.206-.966 4.686a11.942 11.942 0 01-2.735 3.934 11.95 11.95 0 01-4.066 2.539 11.97 11.97 0 01-4.74.744h-24.828a12 12 0 014.737.743 11.951 11.951 0 014.062 2.54 11.866 11.866 0 012.732 3.926c.637 1.477.963 3.071.963 4.681 0 1.61-.326 3.203-.963 4.68a11.933 11.933 0 01-6.794 6.466 12.001 12.001 0 01-4.737.744l-143.657-.103zM1413.36 169.537l-990.949 23.081-108.916 2.538-277.25 6.459C19.48 242.88 8.378 289.524 3.273 337.894H1389.24a544.35 544.35 0 0020-86.855c4.12-28.437 5.79-55.908 4.12-81.502zM282.825 274.691h-24.826a12.227 12.227 0 018.667 3.393 12.147 12.147 0 013.746 8.496v.723a11.79 11.79 0 01-1.656 5.244 11.849 11.849 0 01-3.856 3.931 12.758 12.758 0 01-6.875 2.004h-143.66a11.965 11.965 0 01-8.695-3.343 11.916 11.916 0 01-2.69-3.908 11.864 11.864 0 010-9.289 11.916 11.916 0 016.697-6.46 11.983 11.983 0 014.688-.791h24.839a11.962 11.962 0 01-8.695-3.344 11.886 11.886 0 01-3.637-8.552 11.886 11.886 0 013.637-8.553 11.947 11.947 0 018.695-3.343h-17.735a11.965 11.965 0 01-8.695-3.343 11.905 11.905 0 01-2.69-3.909 11.86 11.86 0 010-9.289 11.887 11.887 0 012.69-3.907 11.95 11.95 0 018.695-3.344h143.66a11.95 11.95 0 018.695 3.344 11.887 11.887 0 013.637 8.552 11.86 11.86 0 01-.947 4.644 11.905 11.905 0 01-6.697 6.46 11.968 11.968 0 01-4.688.792h17.734a12.617 12.617 0 015.895 1.446 11.87 11.87 0 014.727 4.312 11.811 11.811 0 011.791 6.131 12.155 12.155 0 01-3.745 8.501 12.243 12.243 0 01-8.668 3.402h-.038z" opacity=".1"/>
  <g opacity=".1">
    <path stroke="#535461" stroke-miterlimit="10" stroke-width="2" d="M751.793 733.016s36.349-85.815 104.221-117.651c28.493-13.364 52.046-34.78 66.482-61.833a231.038 231.038 0 0016.626-40.111" opacity=".1"/>
    <path fill="#6C63FF" d="M981.797 493.12c-7.063 8.527-43.694 20.962-43.694 20.962s4.418-36.988 11.461-45.502a21.167 21.167 0 0113.831-7.323c5.381-.587 10.781.9 15.093 4.163a19.204 19.204 0 015.178 5.786 19.087 19.087 0 012.459 7.352 19.1 19.1 0 01-.657 7.724 19.12 19.12 0 01-3.671 6.838zM969.234 560.612c-10.771 3.462-48.571-5.165-48.571-5.165s24.686-28.742 35.457-32.217c10.77-3.476 22.444 2.094 26.059 12.411a19.448 19.448 0 01.976 7.727 19.495 19.495 0 01-2.131 7.495 19.539 19.539 0 01-4.903 6.071 19.646 19.646 0 01-6.887 3.678zM901.106 640.387c-11.126-2.208-39.21-27.916-39.21-27.916s36.485-12.903 47.588-10.645a19.795 19.795 0 017.289 2.858 19.76 19.76 0 015.61 5.45 19.727 19.727 0 013.043 7.193c.525 2.576.528 5.231.01 7.807-2.303 10.622-13.2 17.473-24.33 15.253zM835.375 689.632c-11.355-.378-43.578-21.19-43.578-21.19s33.66-18.602 45.019-18.22c11.355.381 20.24 9.516 19.845 20.391-.395 10.874-9.927 19.401-21.286 19.019zM885.486 531.339c1.45 10.798 26.063 39.6 26.063 39.6s16.204-33.841 14.754-44.639c-1.451-10.798-11.764-18.422-23.043-17.041-11.282 1.384-19.225 11.282-17.774 22.08zM809.366 589.859c4.763 9.885 37.238 30.316 37.238 30.316s4.903-36.938.14-46.823a20.93 20.93 0 00-11.717-10.253 21.006 21.006 0 00-15.578.66 19.44 19.44 0 00-10.611 10.914 19.28 19.28 0 00-1.288 7.648c.09 2.609.707 5.172 1.816 7.538zM743.532 656.466c2.94 10.519 31.356 35.908 31.356 35.908s11.346-35.606 8.392-46.125c-2.955-10.52-14.22-16.76-25.21-13.958a19.694 19.694 0 00-12.394 9.025 19.546 19.546 0 00-2.612 7.356 19.572 19.572 0 00.468 7.794z" opacity=".1"/>
    <path fill="#000" d="M981.797 493.12c-7.063 8.527-43.694 20.962-43.694 20.962s4.418-36.988 11.461-45.502a21.167 21.167 0 0113.831-7.323c5.381-.587 10.781.9 15.093 4.163a19.204 19.204 0 015.178 5.786 19.087 19.087 0 012.459 7.352 19.1 19.1 0 01-.657 7.724 19.12 19.12 0 01-3.671 6.838zM969.234 560.612c-10.771 3.462-48.571-5.165-48.571-5.165s24.686-28.742 35.457-32.217c10.77-3.476 22.444 2.094 26.059 12.411a19.448 19.448 0 01.976 7.727 19.495 19.495 0 01-2.131 7.495 19.539 19.539 0 01-4.903 6.071 19.646 19.646 0 01-6.887 3.678zM901.106 640.387c-11.126-2.208-39.21-27.916-39.21-27.916s36.485-12.903 47.588-10.645a19.795 19.795 0 017.289 2.858 19.76 19.76 0 015.61 5.45 19.727 19.727 0 013.043 7.193c.525 2.576.528 5.231.01 7.807-2.303 10.622-13.2 17.473-24.33 15.253zM835.375 689.632c-11.355-.378-43.578-21.19-43.578-21.19s33.66-18.602 45.019-18.22c11.355.381 20.24 9.516 19.845 20.391-.395 10.874-9.927 19.401-21.286 19.019zM885.486 531.339c1.45 10.798 26.063 39.6 26.063 39.6s16.204-33.841 14.754-44.639c-1.451-10.798-11.764-18.422-23.043-17.041-11.282 1.384-19.225 11.282-17.774 22.08zM809.366 589.859c4.763 9.885 37.238 30.316 37.238 30.316s4.903-36.938.14-46.823a20.93 20.93 0 00-11.717-10.253 21.006 21.006 0 00-15.578.66 19.44 19.44 0 00-10.611 10.914 19.28 19.28 0 00-1.288 7.648c.09 2.609.707 5.172 1.816 7.538zM743.532 656.466c2.94 10.519 31.356 35.908 31.356 35.908s11.346-35.606 8.392-46.125c-2.955-10.52-14.22-16.76-25.21-13.958a19.694 19.694 0 00-12.394 9.025 19.546 19.546 0 00-2.612 7.356 19.572 19.572 0 00.468 7.794z" opacity=".25"/>
  </g>
  <g opacity=".1">
    <path stroke="#535461" stroke-miterlimit="10" stroke-width="2" d="M779.001 603.093s4.584-92.513 57.599-144.109c22.252-21.659 37.059-49.346 41.311-79.456a226.778 226.778 0 001.833-43.145" opacity=".1"/>
    <path fill="#6C63FF" d="M912.959 303.634c-3.727 10.278-33.979 33.652-33.979 33.652s-8.607-36.189-4.912-46.531c3.691-10.342 15.454-15.734 26.185-12.156a19.626 19.626 0 016.838 3.739 19.502 19.502 0 016.897 13.593 19.46 19.46 0 01-1.029 7.703zM924.457 371.343c-8.912 6.698-47.601 10.569-47.601 10.569s13.327-34.97 22.292-41.658a21.174 21.174 0 0115.129-4.027 21.152 21.152 0 0113.758 7.452 19.176 19.176 0 014.186 14.599 19.146 19.146 0 01-2.533 7.329 19.19 19.19 0 01-5.231 5.736zM887.803 468.261c-11.266 1.448-46.672-13.958-46.672-13.958s29.943-23.74 41.198-25.174c11.256-1.434 21.642 6.128 23.132 16.913 1.49 10.787-6.403 20.772-17.658 22.219zM842.824 535.601c-10.848 3.25-48.442-6.154-48.442-6.154s25.323-28.231 36.17-31.481c10.848-3.249 22.382 2.536 25.781 12.929a19.531 19.531 0 01.793 7.754 19.575 19.575 0 01-2.3 7.449 19.652 19.652 0 01-12.002 9.503zM835.312 370.34c5.092 9.719 38.294 29.071 38.294 29.071s3.578-37.064-1.527-46.796a20.938 20.938 0 00-12.052-9.895 21.019 21.019 0 00-15.574 1.152 19.37 19.37 0 00-10.253 11.286 19.345 19.345 0 00-1.006 7.704 19.344 19.344 0 002.118 7.478zM783.801 449.736c7.906 7.817 45.616 16.763 45.616 16.763s-8.159-36.393-16.065-44.211a21.24 21.24 0 00-14.465-5.991 21.238 21.238 0 00-14.642 5.56 19.22 19.22 0 00-4.557 6.28 19.085 19.085 0 00-1.693 7.565 19.095 19.095 0 001.451 7.615 19.163 19.163 0 004.355 6.419zM744.703 533.483c6.367 8.983 42.015 23.92 42.015 23.92s-1.643-37.194-8.009-46.189a21.13 21.13 0 00-13.29-8.222 21.182 21.182 0 00-15.319 3.147 19.219 19.219 0 00-8.51 20.254 19.2 19.2 0 003.113 7.09z" opacity=".1"/>
  </g>
  <path fill="#6C63FF" d="M509.963 875.653c12.692 0 22.982-1.408 22.982-3.147 0-1.736-10.29-3.147-22.982-3.147-12.69 0-22.979 1.411-22.979 3.147 0 1.739 10.289 3.147 22.979 3.147zM421.94 884.548c12.692 0 22.979-1.407 22.979-3.147 0-1.736-10.287-3.146-22.979-3.146-12.69 0-22.98 1.41-22.98 3.146 0 1.74 10.29 3.147 22.98 3.147zM318.257 872.506c12.691 0 22.978-1.408 22.978-3.147 0-1.736-10.287-3.147-22.978-3.147-12.692 0-22.98 1.411-22.98 3.147 0 1.739 10.288 3.147 22.98 3.147zM457.167 908.962c9.022 0 16.334-.999 16.334-2.234 0-1.231-7.312-2.234-16.334-2.234-9.022 0-16.334 1.003-16.334 2.234 0 1.235 7.312 2.234 16.334 2.234zM365.808 906.728c9.021 0 16.334-.999 16.334-2.234 0-1.231-7.313-2.23-16.334-2.23-9.022 0-16.334.999-16.334 2.23 0 1.235 7.312 2.234 16.334 2.234z" opacity=".1"/>
  <path fill="#7EFF93" d="M421.445 880.691s32.22-105.32-5.095-147.472c-27.882-31.544-59.531-27.776-73.701-23.866a26.095 26.095 0 00-16.906 13.958c-4.953 10.658-4.062 27.915 30.91 48.14 58.565 33.791 62.22 80.156 62.22 80.156l2.572 29.084z"/>
  <path stroke="#565987" stroke-miterlimit="10" d="M347.741 724.287s95.004 29.602 73.704 156.404M403.226 734.895s-13.075 8.793-8.913 21.991M357.304 742.672s7.996-8.109 17.721-3.628M394.821 783.494s14.004-7.107 17.672 1.789M429.567 798.302s-10.542-.837-10.734 4.189"/>
  <path fill="#7EFF93" d="M422.743 881.528S385.006 805 374.63 806.663c-4.912.8-7.192 5.623-8.211 10.483a30.72 30.72 0 002.051 18.628c5.384 12.218 19.746 35.514 54.273 45.754z"/>
  <path stroke="#565987" stroke-miterlimit="10" d="M374.909 821.205s39.685 57.239 47.323 59.778M371.271 830.137h9.241M382.344 851.089l14.502.621M391.17 834.327l-1.58 7.525M406.585 857.23l-.279 6.838"/>
  <path fill="#7EFF93" d="M421.621 881.528s37.75-76.528 48.126-74.865c4.912.8 7.193 5.623 8.212 10.483a30.729 30.729 0 01-2.052 18.628c-5.294 12.218-19.746 35.514-54.286 45.754z"/>
  <path stroke="#565987" stroke-miterlimit="10" d="M469.455 821.205s-39.582 57.239-47.223 59.778M473.096 830.137h-9.244M462.019 851.089l-14.488.621M453.207 834.327l1.567 7.525M437.789 857.23l.282 6.838"/>
  <path fill="#7EFF93" d="M356.819 899.409a6.586 6.586 0 01-2.151-3.236 2.857 2.857 0 01.163-1.912 2.857 2.857 0 011.338-1.374c1.377-.535 2.854.418 3.973 1.38 1.122.966 2.393 2.058 3.82 1.853a5.858 5.858 0 01-1.822-5.481c.07-.405.246-.786.511-1.105.764-.823 2.151-.468 3.067.179 2.918 2.042 3.731 5.988 3.744 9.53a17.596 17.596 0 000-3.92 4.032 4.032 0 01.309-1.925 3.995 3.995 0 011.182-1.554 4.402 4.402 0 012.253-.531 4.667 4.667 0 011.942.13 4.664 4.664 0 011.723.909 3.626 3.626 0 01-.14 4.478 14.13 14.13 0 01-3.82 3.034 8.408 8.408 0 00-2.712 2.539 1.927 1.927 0 00-.202.455h-8.212a23.253 23.253 0 01-4.966-3.449zM500.646 868.586a6.535 6.535 0 01-2.151-3.237 2.854 2.854 0 011.5-3.286c1.374-.531 2.851.418 3.973 1.384 1.119.963 2.393 2.055 3.821 1.852a5.828 5.828 0 01-1.637-2.502 5.783 5.783 0 01-.186-2.978c.07-.408.246-.79.508-1.105.767-.823 2.154-.468 3.07.179 2.915 2.041 3.731 5.988 3.745 9.527a17.605 17.605 0 000-3.921 4.005 4.005 0 011.473-3.475 4.46 4.46 0 012.267-.534 4.695 4.695 0 013.668 1.042 3.622 3.622 0 01-.153 4.478 14.027 14.027 0 01-3.82 3.034 8.185 8.185 0 00-2.699 2.536 1.756 1.756 0 00-.202.458h-8.212a22.84 22.84 0 01-4.965-3.452zM452.712 899.409a6.566 6.566 0 01-2.151-3.236 2.838 2.838 0 01.163-1.912 2.84 2.84 0 011.338-1.374c1.374-.535 2.851.418 3.973 1.38 1.118.966 2.393 2.058 3.82 1.853a5.852 5.852 0 01-1.636-2.5 5.828 5.828 0 01-.186-2.981c.07-.405.246-.786.511-1.105.764-.823 2.151-.468 3.067.179 2.915 2.042 3.731 5.988 3.744 9.53a17.596 17.596 0 000-3.92 3.977 3.977 0 01.306-1.922 3.985 3.985 0 011.171-1.557 4.449 4.449 0 012.264-.531 4.678 4.678 0 013.668 1.039 3.63 3.63 0 01.7 2.267 3.608 3.608 0 01-.853 2.211 13.925 13.925 0 01-3.82 3.034 8.204 8.204 0 00-2.699 2.539 1.813 1.813 0 00-.202.455h-8.212a22.858 22.858 0 01-4.966-3.449zM316.767 837.105s-3.081 4.01 1.426 10.061c4.507 6.054 8.212 11.179 6.709 14.95 0 0-6.785-11.243-12.324-11.422-5.538-.176-1.884-6.828 4.189-13.589z"/>
  <path fill="#000" d="M316.767 837.105c-.27.388-.48.816-.624 1.268-5.398 6.346-8.262 12.208-3.081 12.348 4.826.139 10.618 8.743 12.006 10.924 0 .166-.102.332-.166.481-.063.153-6.785-11.243-12.324-11.419-5.538-.179-1.884-6.841 4.189-13.602z" opacity=".1"/>
  <path fill="#FFD037" d="M311.051 842.217c0 1.41.152 2.539.343 2.539.191 0 .357-1.142.357-2.539 0-1.394-.191-.747-.395-.747-.203 0-.305-.674-.305.747z"/>
  <path fill="#FFD037" d="M309.077 843.906c1.273.674 2.33 1.079 2.432.9.102-.176-.84-.85-2.088-1.521-1.247-.673-.751-.192-.853 0-.102.19-.726-.063.509.621z"/>
  <path fill="#7EFF93" d="M333.037 837.105s3.07 4.01-1.425 10.061c-4.495 6.054-8.212 11.179-6.71 14.95 0 0 6.786-11.243 12.31-11.422 5.527-.176 1.899-6.828-4.175-13.589z"/>
  <path fill="#000" d="M333.037 837.105c.265.391.475.82.624 1.268 5.387 6.346 8.261 12.208 3.08 12.348-4.824.139-10.617 8.743-12.004 10.924 0 .166.101.332.165.481.064.153 6.786-11.243 12.31-11.419 5.527-.179 1.899-6.841-4.175-13.602z" opacity=".1"/>
  <path fill="#FFD037" d="M338.753 842.217c0 1.41-.153 2.539-.356 2.539-.202 0-.355-1.142-.355-2.539 0-1.394.203-.747.395-.747.189 0 .316-.674.316.747z"/>
  <path fill="#FFD037" d="M340.754 843.906c-1.275.674-2.33 1.079-2.42.9-.089-.176.84-.85 2.088-1.521 1.248-.673.75-.192.84 0 .09.19.763-.063-.508.621z"/>
  <path fill="#A8A8A8" d="M337.773 861.595s-8.605-.266-11.203-2.108c-2.597-1.839-13.24-4.033-13.877-1.079-.637 2.958-12.948 14.682-3.221 14.758 9.727.077 22.586-1.51 25.171-3.083 2.583-1.574 3.13-8.488 3.13-8.488z"/>
  <path fill="#000" d="M309.294 872.101c9.727.076 22.585-1.51 25.17-3.084 1.972-1.191 2.762-5.493 3.031-7.472h.278s-.547 6.915-3.13 8.488c-2.585 1.573-15.457 3.16-25.171 3.083-2.814 0-3.819-1.015-3.73-2.539.394.989 1.464 1.524 3.552 1.524z" opacity=".2"/>
  <path fill="#6C63FF" d="M258.248 715.122l-.004-.01c-1.86-5.905-8.169-9.188-14.093-7.336l-26.516 8.299c-5.924 1.852-9.218 8.142-7.358 14.044l.004.013c1.859 5.905 8.169 9.188 14.092 7.332l26.517-8.295c5.923-1.855 9.218-8.142 7.358-14.047z"/>
  <path fill="url(#paint0_linear)" d="M860.19 375.874s-3.947-30.087-25.147-30.721c-21.197-.634 3.326 37.32 5.819 40.745 1.464 1.992.292 7.535-.916 11.814a87.553 87.553 0 00-2.178 9.351 21.775 21.775 0 01-4.786 10.824 54.168 54.168 0 00-8.531 14.237s-6.236.265-8.517-1.268c-2.277-1.537-16.828-6.828-17.452-5.978-.143.179-.538.255-1.082.242a17.34 17.34 0 01-2.55-.319 26.893 26.893 0 00-.418-2.157s-1.796-.774-3.82-1.866v-.126c.471-1.192.776-2.473 1.274-3.641v-.103a5.646 5.646 0 011.617-2.284c1.948-1.56 4.76-1.026 7.116-1.802.262-.087.525-.19.777-.302l.279-.166.435-.243.305-.215.342-.253.305-.265c.093-.1.189-.193.296-.279l.265-.319.269-.305.242-.342c.077-.113.163-.216.229-.329.063-.116.153-.242.216-.368l.203-.369.192-.381.166-.392a3.77 3.77 0 00.163-.408c0-.126.089-.266.142-.405.05-.14.077-.279.127-.418.049-.14 0-.266.102-.419.04-.142.073-.285.1-.431l.076-.418c0-.153 0-.306.067-.459.063-.152 0-.265 0-.391v-.498a3.003 3.003 0 010-.355V402.658v-.113c-.05-.521-.13-1.036-.243-1.547-.587-2.539-1.745-5.268-.942-7.538.026-.086.063-.173.103-.252.099-.256.229-.498.381-.724a5.202 5.202 0 012.111-1.739c.741-.382 1.554-.674 2.317-.99a17.823 17.823 0 007.359-5.075 11.712 11.712 0 002.549-5.736c.15-.956.15-1.928 0-2.881v-.265a26.768 26.768 0 01-1.148-5.076 6.465 6.465 0 01.295-1.995c.1-.302.216-.607.342-.913l.103-.215c.139-.292.292-.584.445-.863a.99.99 0 00.089-.153l.495-.787.116-.162c.179-.279.382-.558.574-.84.468-.671.966-1.331 1.424-2.015.216-.319.422-.647.611-.979.193-.342.368-.671.534-1.016v-.163c.16-.358.299-.72.422-1.092l.113-.368c.116-.418.219-.823.295-1.268a2.586 2.586 0 010-.305c0-.382.1-.761.126-1.142a2.164 2.164 0 010-.279v-1.344c.007-.11.007-.22 0-.332 0-.442 0-.9-.089-1.345a34.294 34.294 0 00-.84-4.733c-.548-2.271-1.514-4.873-3.731-5.48a9.133 9.133 0 00-3.462.152 16.66 16.66 0 01-10.286-2.602 82.856 82.856 0 01-8.723-6.496c-1.935-1.51-4.328-3.008-6.645-2.259-.814.34-1.6.739-2.354 1.193-.166.067-.335.12-.511.153a12.35 12.35 0 01-2.443.203h-.229c-.7-2.234-1.454-4.442-2.293-6.625-2.125-5.545-4.837-11.115-9.434-14.77a38.039 38.039 0 00-8.706-4.733c-9.334-4.06-19.594-8.184-29.283-5.278-4.291 1.268-8.099 3.806-11.829 6.344l-15.644 10.646-1.172-.355c-2.293-.66-4.66-1.053-6.034-1.51l-.242-.076c-4.405-1.637-8.813-5.228-8.913-10.05-.006-.745.067-1.49.216-2.221.379-1.531.86-3.036 1.437-4.504.319-.863.588-1.738.854-2.614l.255-.939c.153-.558.292-1.117.435-1.675l.265-1.269c.103-.457.18-.901.269-1.357.087-.457.176-.965.243-1.447 0-.216-.004-.444.099-.673.193-1.383.332-2.766.408-4.149 0-.736 0-1.472.077-2.22v-.317-2.247a51.977 51.977 0 00-8.786-27.535 16.416 16.416 0 00-1.716 6.764c.026.437-.063.875-.256 1.269-.149.166-.328.3-.528.396a1.677 1.677 0 01-.64.159 1.675 1.675 0 01-.654-.104 1.631 1.631 0 01-.558-.35 22.749 22.749 0 01-1.782-2.056 4.393 4.393 0 00-5.311-.634 4.78 4.78 0 00-1.948 5.139 20.088 20.088 0 00-10.171-2.039 20.067 20.067 0 00-9.828 3.308 7.402 7.402 0 00-3.452 4.365 5.074 5.074 0 00.598 3.54c1.082 2.107 3.183 4.01 4.56 6.167-5.782 7.245-8.328 17.917-8.328 17.917l-1.118 1.396a39.257 39.257 0 00-7.183 5.672c-1.564 1.7-2.878 4.035-2.393 6.344l-19.428 24.299s-20.788 28.258-22.916 34.654c-.432 1.268-8.912 11.09 3.933 23.03 12.846 11.939 15.382 13.224 17.25 17.284 1.096 2.373 9.474 6.698 16.261 9.885l2.367 1.102c-.548 7.03 2.738 15.229 12.656 24.669.209 1.115.309 2.251.292 3.386 0 8.311 3.741 22.08 3.741 22.08s5.298 8.312-1.553 13.756c-6.848 5.443-8.388 8.577-4.176 12.992l.13.126-.624 12.487h-1.836s-16.55 11.508-19.985 18.233c-3.439 6.725-9.653 24.67-9.653 24.67s-1.271 17.267-3.12 19.833c-1.845 2.562 0 13.118 0 13.118s-.315 16.318 3.731 20.162c4.05 3.847 2.815 13.44 2.815 13.44.093 2.081.332 4.156.714 6.204-4.342-1.268-12.019-2.108-13.344 7.88a106.491 106.491 0 00-.929 22.84s-3.744 16.786-6.542 21.573c-2.802 4.783-8.737 47.251 17.605 39.995 0 0 3.96-1.129 6.366-6.523a29.672 29.672 0 002.739-3.402c-.103 8.288 2.187 15.292 10.299 13.579 0 0 4.657-1.029 6.758-10.798a100.797 100.797 0 0011.458-13.337l7.525-18.704.574-1.434 7-7.485a189.738 189.738 0 0035.649 7.462c3.552.375 7.123.537 10.695.481 6.2.113 12.391-.468 18.462-1.74 11.355 1.574 31.164 2.868 47.817-3.538 24.927-9.593 7.79-30.721 3.425-35.202-4.368-4.477-18.143-17.762-19.252-18.804v-.076s2.55-76.793-2.811-79.027c-5.361-2.234-23.059-21.128-23.059-21.128l1.872-12.156s8.723.966 9.042-6.725c.315-7.687 0-19.199 0-19.199l11.458-20.477s13.874-8.212 20.178-10.99c.332.216.687.445 1.082.66 6.851 3.907 21.515 8.196 26.633 7.233 6.861-1.271 20.573 1.713 29.283 2.536 8.706.827 12.732-7.88 11.84-8.882-.89-1.003 3.538-10.798 3.538-10.798s8.315-40.108 6.442-46.504c-1.872-6.397 1.199-17.802 1.199-17.802zM636.323 633.23c.724.355 1.477.697 2.254 1.042a122.01 122.01 0 0012.5 4.415l7.79 2.881s-11.736.279-17.592.571a17.293 17.293 0 01-7.564-3.492 12.915 12.915 0 012.612-5.417zm117.724-224.086c-.14-.382-.266-.787-.382-1.192a44.986 44.986 0 003.16-.916c-.7.8-1.553 1.753-2.549 2.778-.076-.225-.163-.441-.229-.67zm-131.13-31.723s5.563-13.666 9.841-23.03c.169.754.359 1.5.571 2.244-.176 0-.153-.203.588 1.716v.1a28.103 28.103 0 0011.71 13.957 26.073 26.073 0 005.553 2.54v-.193a1.741 1.741 0 000-.368c.007-.073.007-.15 0-.226a1.62 1.62 0 000-.355l-.076-.179a2.029 2.029 0 00-.193-.355l-.113-.127a.865.865 0 00-.179-.202c.866.544 1.746 1.065 2.622 1.596.193.103.369.23.561.346.903.518 1.809 1.012 2.725 1.507l.661.381c1.082.571 2.191 1.129 3.299 1.663l.163.077 1.377.634 2.164.976a3.819 3.819 0 002.267.444 3.638 3.638 0 001.375-.736l.418-.316c2.635-1.955 5.998-2.463 9.002-3.717 3.004-1.259 5.998-3.897 5.805-7.233a7.672 7.672 0 00-1.085-3.051 7.695 7.695 0 00-2.251-2.33c-1.719-1.268-3.704-2.207-5.447-3.475-3.223-2.36-5.463-6.792-4.444-10.47.076-.272.169-.541.279-.8l.076-.189c.103-.212.219-.428.345-.647 0-.063.077-.139.126-.216.412-.597.9-1.142 1.454-1.613a23.564 23.564 0 012.264-1.673l15.355-10.317a80.332 80.332 0 013.515-2.285 34.39 34.39 0 013.17-1.725c.318-.14.634-.292.966-.419l.637-.266a25.884 25.884 0 011.743-.597 15.41 15.41 0 011.274-.228 82.853 82.853 0 01-6.555 14.705 11.308 11.308 0 00-1.199 2.629 3.178 3.178 0 00-.139.787 7.798 7.798 0 00.714 3.299c.889 2.383 1.271 4.159 3.296 5.583.534.379 1.032.734 1.463 1.102 0 .382-.112.764-.166 1.142a49.103 49.103 0 00-.328 5.673 46.683 46.683 0 008.912 27.521l-.511.571a46.6 46.6 0 01-9.384 8.311c-.405.256-.813.495-1.271.724a14.127 14.127 0 01-1.49-3.236 4.016 4.016 0 01-3.001-.087 4.006 4.006 0 01-2.091-2.144c-1.809-3.528-7.422 0-7.422 0s-12.733-7.362-13.393-4.162a3.159 3.159 0 01-.727 1.344l-.75-.71s-2.931.962-7.04 2.841a7.908 7.908 0 01-4.584-2.841c-1.275-1.65-.943.786-.14 5.178l-.102.063-1.491-.548c-8.796-3.223-29.727-11.598-30.706-18.651l-.013.063zm143.76 31.925c-.571-1.789-3.346-3.183-5.424-4.01a45.756 45.756 0 0023.135-24.297c.189-.472.369-.953.548-1.434.368-.09.737-.153 1.092-.269a5.31 5.31 0 002.114-.933 5.329 5.329 0 001.527-1.729 6.006 6.006 0 00.372-2.018c.099-1.537.162-3.071.202-4.608v-.215c.226-9.414-.72-18.821-2.814-28.006l1.377 1.132a70.1 70.1 0 011.59 1.344c.521.455.903.824 1.275 1.268l.202.203c.408.408.803.826 1.172 1.268.046.053.089.109.126.166.332.408.644.83.929 1.268l.319.498c.246.388.475.81.687 1.268l.129.252c.196.448.365.906.508 1.371l.113.319c.116.405.206.81.295 1.268 0 .189.09.368.127.557.076.432.126.877.179 1.335v.481c0 .418.063.85.089 1.268.024.418 0 .544 0 .813a56.822 56.822 0 01-5.221 24.779 96.694 96.694 0 01-13.532 21.383 28.434 28.434 0 00-4.471 6.546c-.189.462-.355.933-.495 1.411-2.191-.292-5.576-.916-6.137-2.742l-.013.063z"/>
  <path fill="#FBBEBE" d="M864.86 396.48c1.912 6.344-6.582 46.1-6.582 46.1s-4.454 9.782-3.601 10.708c.853.926-3.184 9.593-12.096 8.743-8.912-.85-22.916-3.807-29.916-2.536-5.235.949-20.208-3.299-27.208-7.17-2.38-1.271-3.82-2.602-3.691-3.618.544-4.01 13.914-22.206 13.914-22.206a37.11 37.11 0 006.111 1.092c.561 0 .966-.063 1.109-.239.634-.853 15.494 4.441 17.821 5.925 2.33 1.484 8.696 1.205 8.696 1.205a53.519 53.519 0 018.71-14.111 21.355 21.355 0 004.899-10.735 83.2 83.2 0 012.217-9.274c1.272-4.239 2.43-9.732.943-11.714-2.546-3.386-27.59-41.024-5.948-40.387 21.645.634 25.681 30.452 25.681 30.452s-2.968 11.422-1.059 17.765zM767.251 432.11l-17.824 7.615-20.689 6.343s-47.422-38.385-35.327-41.24a20.75 20.75 0 005.958-2.536 47.028 47.028 0 009.586-8.235 84.132 84.132 0 008.325-10.748s46.788-2.221 39.469 8.883c-2.855 4.325-1.885 11.355.355 18.323.126.418.269.836.408 1.268a117.229 117.229 0 009.739 20.327z"/>
  <path fill="#3F3D56" d="M650.022 645.741s-8.212-7.612-11.206 4.112a120.278 120.278 0 00-3.538 19.223s-4.531 13.818-6.924 17.612c-2.394 3.794-11.601 39.082 5.981 35.531 0 0 6.469-1.371 7.73-16.255 1.258-14.884 12.132-59.284 12.132-59.284l-4.175-.939z"/>
  <path fill="#FBBEBE" d="M783.482 673.517c-17.821 6.649-39.134 4.936-50.403 3.3-4.862-.698-7.843-1.395-7.843-1.395l-55.697-5.709-1.122 1.165-7.153 7.426-8.275 19.959s-22.282 30.452-24.828 12.371a74.182 74.182 0 01-.471-11.93c.511-19.272 5.563-44.854 5.563-44.854l50.608-6.662 31.829-16.494.342-17.207.076-4.226.219-10.609 43.286 4.126 7.638 17.128.076.077c1.119 1.042 15.378 14.376 19.657 18.641 4.278 4.262 21.963 25.377-3.502 34.893z"/>
  <path fill="#4B3C1D" d="M660.677 679.724s-22.724.95-24.188-3.11l-7.043 16.736s20.689 7.93 23.553 4.913l7.678-18.539z"/>
  <path fill="#3F3D56" d="M620.842 628.155s-14.794-7.296-16.706 6.661a102.543 102.543 0 00-.952 22.688s-3.821 16.647-6.685 21.407c-2.865 4.76-8.912 46.846 17.977 39.653 0 0 9.865-2.689 8.275-19.986-1.59-17.294 4.889-70.105 4.889-70.105l-6.798-.318z"/>
  <path fill="#000" d="M702.638 595.164l46.151 40.605s26.737 14.274-5.091 38.701c0 0-14.323 6.028-36.283 3.807a195.44 195.44 0 01-40.103-8.564s-16.553-2.539-22.282 6.343c-5.729 8.883-18.459 28.231-18.459 28.231s-15.597 30.774-25.78-7.295l13.048-37.114s.637-12.371 0-15.226c-.638-2.855 8.593-15.545 13.366-11.422 4.777 4.126 11.143 9.835 16.553 9.517 5.411-.316 19.096-.634 19.096-.634l-7.956-2.855s-22.916-6.343-21.326-11.103c1.593-4.757 12.732-27.916 12.732-27.916l56.334-5.075z" opacity=".1"/>
  <path fill="#FBBEBE" d="M741.152 674.47a50.5 50.5 0 01-8.073 2.346 89.579 89.579 0 01-28.21 1.461 199.123 199.123 0 01-36.452-7.399c-2.34-.71-3.655-1.165-3.655-1.165s-16.549-2.539-22.278 6.343c-3.817 5.849-10.579 16.229-14.794 22.648l-3.665 5.583s-15.597 30.774-25.784-7.295l13.052-37.114s.637-12.371 0-15.226c-.432-1.942 3.677-8.401 7.856-11.053 1.972-1.268 3.97-1.7 5.51-.369a62.534 62.534 0 0010.187 7.728 12.203 12.203 0 006.366 1.789c5.411-.316 19.096-.634 19.096-.634l-7.956-2.855a124.741 124.741 0 01-12.733-4.378c-4.952-2.081-9.28-4.568-8.554-6.725 1.59-4.757 12.73-27.916 12.73-27.916l56.337-5.075 16.016 14.097 6.861 6.028 23.274 20.48s26.697 14.274-5.131 38.701z"/>
  <path stroke="#000" stroke-miterlimit="10" d="M701.048 653.85s-12.095-16.179-40.74-11.737" opacity=".1"/>
  <path fill="#000" d="M610.018 657.189l-9.227 21.088s10.183 23.322 29.916 19.833l12.135-21.914s-27.4-2.842-32.824-19.007z" opacity=".1"/>
  <path fill="#4B3C1D" d="M608.747 658.457l-9.231 21.088s10.187 23.322 29.92 19.833l12.131-21.914s-27.397-2.842-32.82-19.007z"/>
  <path fill="#000" d="M789.211 450.828a22.598 22.598 0 00-3.817 1.497c-2.383-1.271-3.821-2.602-3.694-3.618.547-4.01 13.917-22.206 13.917-22.206a37.11 37.11 0 006.111 1.092c2.151 14.047-8.607 22.332-12.517 23.235zM767.251 433.378l-17.824 7.615-20.689 6.343s-47.422-38.382-35.327-41.239a20.807 20.807 0 005.958-2.536c7.126 9.337 23.958 19.033 23.958 19.033 14.081 5.075 26.876-4.189 33.777-10.861a114.649 114.649 0 0010.147 21.645z" opacity=".1"/>
  <path fill="#fff" d="M786.665 450.828c-4.136.949-22.916 11.737-22.916 11.737l-11.777 20.301s.319 11.419 0 19.034c-.318 7.614-9.231 6.662-9.231 6.662l-.431.179c-2.28.949-12.972 5.43-12.972 5.53 0 .103-21.923-2.221-21.923-2.221l-42.968-6.977s-13.689-.634-18.143-5.075l-.129-.13c-4.302-4.375-2.672-7.535 4.265-12.879 6.94-5.341 1.593-13.639 1.593-13.639s-3.82-13.639-3.82-21.888c0-8.249-4.136-7.93-4.136-7.93s-2.865 0 9.865-8.249c12.732-8.248-1.59-46.633 2.864-41.239 4.458 5.394 12.733 2.536 13.37-.634.634-3.174 13.685 4.122 13.685 4.122s5.729-3.488 7.638 0a4.142 4.142 0 002.118 2.085 4.143 4.143 0 002.974.136c3.183 10.469 26.736 24.109 26.736 24.109 21.008 7.614 39.151-16.813 39.151-16.813s7 1.905 7.956 4.783c.956 2.881 8.912 2.742 8.912 2.742s9.546 1.042 9.865 3.897c.319 2.855 9.549 6.662 9.549 6.662 3.821 15.541-7.956 24.742-12.095 25.695z"/>
  <path fill="#000" d="M742.742 506.022l-.432 2.716c-2.28.952-12.972 5.433-12.972 5.533 0 .103-21.923-2.221-21.923-2.221l-42.971-6.977s-13.685-.634-18.14-5.075l-.129-.13.129-2.41 7-1.268s68.752 3.808 78.298 8.249l11.14 1.583zM767.327 619.983c0 1.573-.076 2.463-.076 2.463s-13.367-20.62-30.872-10.47a22.487 22.487 0 01-13.407 3.313 21.33 21.33 0 01-6.941-1.802 27.373 27.373 0 01-9.572-7.22s-30.554 6.343-41.059 14.911c-10.502 8.563-19.096-2.54-19.096-2.54s-2.994 13.032-6.721 16.242c-4.953-2.081-9.284-4.568-8.557-6.725 1.593-4.757 12.732-27.916 12.732-27.916l56.335-5.075 16.015 14.097.219-10.609 43.286 4.126 7.638 17.128.076.077z" opacity=".1"/>
  <path fill="#292929" d="M653.304 498.727s68.752 3.807 78.298 8.248l11.14 1.587-1.909 12.052s18.143 18.718 23.553 20.939c5.411 2.22 35.553 122.318 35.553 122.318s-2.41-3.512-19.916 6.639c-17.505 10.15-54.767 4.979-54.767 4.979s-81.179-20.182-91.685-11.618c-10.502 8.564-6.233 0-6.233 0s4.139 1.733 0 3.319c-4.139 1.587-7.771-18.256-7.771-18.256s2.546-6.503 2.546-9.995c0-3.488-.318-4.756-2.546-7.296-2.227-2.536-2.545-10.784-2.545-10.784s1.274-9.517-2.865-13.324c-4.139-3.807-3.82-19.986-3.82-19.986s-1.922-10.466 0-13.005c1.922-2.536 3.183-19.667 3.183-19.667s6.366-17.765 9.868-24.427c3.502-6.662 20.37-18.081 20.37-18.081h1.872l.634-12.371 7.04-1.271z"/>
  <path fill="#3F3D56" d="M729.478 525.477a2.01 2.01 0 002.011-2.005 2.01 2.01 0 00-2.011-2.005 2.008 2.008 0 00-2.012 2.005c0 1.106.9 2.005 2.012 2.005zM718.757 570.952a2.006 2.006 0 002.011-2.005 2.009 2.009 0 00-2.011-2.005 2.01 2.01 0 00-2.012 2.005c0 1.109.9 2.005 2.012 2.005zM732.877 555.51a2.006 2.006 0 002.011-2.004 2.008 2.008 0 00-2.011-2.005 2.009 2.009 0 00-2.012 2.005c0 1.108.9 2.004 2.012 2.004z"/>
  <path fill="#000" d="M649.268 514.271h2.549s-15.278 34.896-16.118 25.164c-.84-9.732 13.569-25.164 13.569-25.164zM667.527 516.81s-17.406 26.645-8.912 30.452c8.491 3.807 16.119-29.184 16.119-29.184l-7.207-1.268zM690.646 532.189s6.582 40.453 14.004 48.28c7.425 7.83-1.271 13.324-1.271 13.324s26.099 2.323 34.374 4.009c8.275 1.69 21.007-1.902 15.912-5.277-5.092-3.376-.84-39.338-.418-41.038.418-1.699-16.334 31.189-62.601-19.298zM662.432 484.669c1.477-.634 25.247-33.907 30.979-31.228 5.729 2.678-30.979 31.228-30.979 31.228zM665.4 455.269s-9.546 14.592-6.785 17.128c2.762 2.54 6.785-17.128 6.785-17.128zM678.222 400.072s9.676 19.249 6.911 22.84c-2.762 3.588-6.911-22.84-6.911-22.84zM786.768 426.501s-1.909 11.219-4.458 11.637c-2.546.418 4.458-11.637 4.458-11.637zM740.936 430.105s26.952 6.573 29.076 8.046c2.128 1.471-23.347 1.471-29.076-8.046zM840.238 449.139s-3.386-13.122-7.84-12.906c-4.458.216 7.84 12.906 7.84 12.906z" opacity=".1"/>
  <path fill="#FBBEBE" d="M638.029 349.1c-2.33 2.536-14.425 31.086-14.425 31.086 1.005 6.994 22.381 15.305 31.433 18.515 2.443.876 3.996 1.371 3.996 1.371l8.697 7.611s-8.912 49.07-9.626 37.014c-.71-12.052-16.473-18.196-16.473-18.196s-4.126-1.673-9.065-3.944c-6.924-3.16-15.481-7.448-16.55-9.799-1.909-4.019-4.458-5.291-17.622-17.127-13.164-11.841-4.454-21.573-4.023-22.841 2.114-6.347 23.338-34.349 23.338-34.349l30.719-37.344s8.481-34.679 29.794-21.153c21.31 13.527-24.28 45.896-24.28 45.896s-13.583 20.721-15.913 23.26z"/>
  <path fill="#000" d="M667.73 407.683s-8.912 49.07-9.626 37.014c-.71-12.052-16.473-18.196-16.473-18.196s-4.126-1.673-9.065-3.947c1.593-11.239 13.33-19.249 22.471-23.853 2.443.876 3.996 1.371 3.996 1.371l8.697 7.611z" opacity=".1"/>
  <path fill="#fff" d="M678.003 402.521l-9.331-8.477s-60.37 19.033-19.633 55.094h17.177l15.733-20.835-3.946-25.782z"/>
  <path fill="#000" d="M757.064 410.465c.13.418.269.836.408 1.268a46.034 46.034 0 01-27.015-1.388 45.873 45.873 0 01-21.542-16.314 83.843 83.843 0 008.328-10.748s46.788-2.221 39.466 8.882c-2.815 4.302-1.845 11.333.355 18.3z" opacity=".1"/>
  <path fill="#FBBEBE" d="M792.062 366.155a45.548 45.548 0 01-7.724 25.376 45.799 45.799 0 01-20.566 16.826 45.995 45.995 0 01-26.481 2.599 45.888 45.888 0 01-23.467-12.501 45.592 45.592 0 01-12.543-23.391 45.54 45.54 0 012.605-26.392 45.7 45.7 0 0116.882-20.501 45.942 45.942 0 0125.462-7.698 45.808 45.808 0 0117.569 3.429 45.696 45.696 0 0114.893 9.899 45.488 45.488 0 019.932 14.844 45.338 45.338 0 013.438 17.51z"/>
  <path fill="#000" d="M792.062 366.155a45.425 45.425 0 01-3.561 17.675 20.773 20.773 0 01-7.807.126 4.626 4.626 0 01-2.762-1.268 5.065 5.065 0 01-.929-2.539c-.485-2.818-.959-5.626-1.427-8.425-4.123 1.61-8.913.419-12.73-1.739-3.82-2.157-7.179-5.165-10.897-7.614-3.717-2.447-8.162-4.186-12.53-3.399a21.16 21.16 0 00-6.695 2.804 46.809 46.809 0 00-11.458 8.538c-2.317 2.539-4.342 5.583-7.551 6.738a8.011 8.011 0 01-6.025-.508 7.98 7.98 0 01-3.943-4.567c-.674-2.347-.216-4.86-.498-7.283a5.637 5.637 0 00-2.43-4.212 45.644 45.644 0 0116.198-29.552 45.935 45.935 0 0132.117-10.458 45.88 45.88 0 0130.577 14.318 45.59 45.59 0 0112.428 31.311l-.077.054z" opacity=".1"/>
  <path fill="#EAEAEA" d="M703.173 363.476c.282 2.423-.176 4.936.498 7.283.664 1.978 4.783-3.26 6.648-2.311 1.866.95 1.325 8.01 3.319 7.386 3.21-1.155 4.322-8.192 6.639-10.705 3.359-3.416 5.722 3.904 9.958 1.66 2.054-1.311 9.24-6.095 11.617-6.639 4.368-.787 6.227-5.716 9.958-3.319 3.731 2.396 6.087 11.478 9.957 13.675 3.871 2.194 9.623 1.61 13.732 0l1.428 8.425c.073.913.394 1.792.929 2.539a4.631 4.631 0 002.762 1.268c3.163.558 6.409.369 9.486-.548a5.355 5.355 0 002.147-.912 5.392 5.392 0 001.57-1.726 5.892 5.892 0 00.382-2.005 109.654 109.654 0 00-7.359-47.557c-2.177-5.507-4.952-11.027-9.639-14.643a38.855 38.855 0 00-8.912-4.695c-9.523-4.023-20.012-8.121-29.956-5.241-4.378 1.269-8.262 3.807-12.082 6.344l-17.821 11.788a11.141 11.141 0 00-2.549 2.094 12.139 12.139 0 00-1.922 4.188 81.081 81.081 0 01-7.306 16.344 8.06 8.06 0 00-1.377 3.386 7.762 7.762 0 00.74 3.263c.916 2.373 1.271 4.135 3.359 5.533 2.088 1.394 3.465 2.383 3.794 5.125z"/>
  <g opacity=".1">
    <path fill="#000" d="M679.098 374.782c-3.067 1.268-6.505 1.752-9.191 3.691a5.284 5.284 0 01-1.832 1.042 4.04 4.04 0 01-2.317-.445 95.361 95.361 0 01-14.007-7.246 1.837 1.837 0 01.767 2.121 28.138 28.138 0 01-10.675-6.157 27.983 27.983 0 01-6.997-10.124c-1.019-2.599.189 2.778 0 0-.282 4.049-1.477 0 0 3.807a27.999 27.999 0 006.974 10.114 28.158 28.158 0 0010.645 6.167 1.854 1.854 0 00-.017-1.191 1.855 1.855 0 00-.747-.93 95.135 95.135 0 0014.004 7.246c.71.376 1.517.532 2.317.445a5.283 5.283 0 001.836-1.042c2.685-1.942 6.124-2.446 9.19-3.691 3.067-1.245 6.125-3.807 5.932-7.17a5.304 5.304 0 00-.368-1.61 9.889 9.889 0 01-5.514 4.973zM693.627 306.553c.016.544.093 1.084.229 1.612a32.348 32.348 0 011.464-4.467 49.376 49.376 0 002.94-18.78 49.023 49.023 0 01-2.94 14.973 18.05 18.05 0 00-1.693 6.662zM799.663 349.684c-1.706-3.641-4.939-6.068-8.055-8.527.355 1.51.673 3.03.965 4.567 2.802 2.208 5.564 4.505 7.09 7.767a18.334 18.334 0 011.428 6.964v-3.438a18.655 18.655 0 00-1.428-7.333zM657.035 283.51c.382-1.865 1.401-1.053.561-2.817-1.387-2.868-4.521-5.177-5.626-7.918a4.46 4.46 0 00-.305.939c-.83 4.149 3.538 5.976 5.37 9.796.269.545-1.132-2.716 0 0zM703.405 327.643a9.26 9.26 0 00-1.274.228 36.853 36.853 0 00-10.287 5.253l-15.687 10.227a13.014 13.014 0 00-3.817 3.273 6.885 6.885 0 00-.853 5.672 6.04 6.04 0 01.853-1.865 12.926 12.926 0 013.817-3.273l15.687-10.227a37.616 37.616 0 0110.008-5.164 112.253 112.253 0 001.553-4.124zM824.465 378.639a11.586 11.586 0 01-2.443 4.999 18.273 18.273 0 01-7.551 5.075c-1.667.647-3.512 1.271-4.531 2.705a5.863 5.863 0 00-.764 2.337 5.88 5.88 0 00.266 2.447c.119-.349.285-.678.498-.98 1.019-1.47 2.864-2.054 4.531-2.702a18.273 18.273 0 007.551-5.075 10.575 10.575 0 002.546-8.527c-.027-.1-.027-.189-.103-.279zM828.488 359.934c-1.657 3.416-5.258 6.144-5.208 9.939.016.634.116 1.264.295 1.875.877-2.855 3.552-5.201 4.913-8.006a13.902 13.902 0 001.032-7.612 11.851 11.851 0 01-1.032 3.804zM777.932 381.417a4.63 4.63 0 002.762 1.271 20.7 20.7 0 009.486-.547 5.46 5.46 0 003.718-2.639 5.916 5.916 0 00.382-2.005c.215-3.12.278-6.244.215-9.364 0 1.852-.089 3.704-.215 5.557a5.916 5.916 0 01-.382 2.005 5.404 5.404 0 01-1.57 1.726 5.416 5.416 0 01-2.148.912 20.7 20.7 0 01-9.486.548 4.618 4.618 0 01-2.762-1.271 5.044 5.044 0 01-.929-2.536c-.485-2.818-.959-5.627-1.427-8.425-4.123 1.61-8.909.419-12.73-1.739-3.82-2.158-7.179-5.165-10.897-7.615-3.717-2.446-8.162-4.185-12.53-3.399a21.224 21.224 0 00-6.695 2.805 46.809 46.809 0 00-11.458 8.538c-2.317 2.539-4.342 5.583-7.551 6.738a8.017 8.017 0 01-6.025-.508 7.98 7.98 0 01-3.943-4.567c-.674-2.347-.216-4.86-.498-7.283-.329-2.765-1.716-3.807-3.817-5.178s-2.446-3.16-3.362-5.534c-.113-.302-.243-.634-.342-.949a4.666 4.666 0 00-.395 1.497 7.669 7.669 0 00.737 3.26c.916 2.373 1.274 4.139 3.362 5.533 2.088 1.397 3.435 2.41 3.817 5.178.282 2.423-.176 4.936.498 7.283a7.98 7.98 0 003.943 4.567 8.012 8.012 0 006.025.508c3.209-1.155 5.234-4.225 7.551-6.738a46.82 46.82 0 0111.458-8.541 21.192 21.192 0 016.695-2.801c4.368-.787 8.799 1.002 12.53 3.399 3.728 2.4 7.027 5.417 10.897 7.614 3.87 2.194 8.62 3.349 12.73 1.736.478 2.812.952 5.62 1.427 8.428.073.913.395 1.789.929 2.536zM805.203 411.58c-2.406.76-5.284.242-7.269 1.776-1.988 1.537-2.191 4.607-3.425 6.891a7.938 7.938 0 01-10.363 3.097 7.911 7.911 0 01.445-3.452 6.537 6.537 0 01-4.133-.266 6.497 6.497 0 01-3.136-2.692 6.611 6.611 0 01-.651-1.663 7.792 7.792 0 00.651 5.47 6.513 6.513 0 003.136 2.692 6.55 6.55 0 004.133.266 7.904 7.904 0 00-.445 3.449 7.933 7.933 0 0010.363-3.094c1.274-2.284 1.36-5.291 3.425-6.891 2.061-1.6 4.863-1.016 7.269-1.776 4.239-1.344 6.084-6.499 5.361-10.927-.511 3.223-2.317 6.154-5.361 7.12z" opacity=".1"/>
  </g>
  <path fill="url(#paint1_linear)" d="M1232.86 529.942c.39-.19.78-.379 1.16-.594-.78-.153-1.56-.332-2.32-.522-.55.153-1.11.266-1.67.392a62.798 62.798 0 01-28.01-16.836c-7.76-8.159-13.2-18.844-13.09-29.947.09-8.096 3.08-15.989 2.99-24.108-.09-8.123-4.83-17.271-13.13-18.184-2.89-.318-5.78.432-8.7.531-2.91.103-6.16-.657-7.64-3.057-1.27-2.068-.94-4.756-.12-7.053 2.21-6.208 7.19-11.22 9.33-17.45a20.914 20.914 0 00.57-11.495c-.73-3.174-2.43-6.343-5.39-7.88-4.92-2.536-10.76.405-16.23 1.434-9.34 1.775-18.83-2.271-26.87-7.22-8.05-4.949-15.58-10.964-24.64-13.868a59.36 59.36 0 00-18.28-2.36c-3.82 0-7.96.302-10.77 2.778-.14.126-.24.266-.38.392.27-.784.64-1.531 1.11-2.221-.43.256-.82.548-1.19.876-5.84 5.139-1.75 14.947-5.19 21.825-.39.76-.86 1.477-1.4 2.134a16.18 16.18 0 002.26-2.081c-.12.302-.24.608-.39.913-1.97 3.96-6.15 6.343-10.19 8.298-4.03 1.955-8.42 3.745-11.34 7.107-.07.076-.13.149-.2.239a12.3 12.3 0 012.03-3.349c-.83.641-1.6 1.358-2.3 2.144-3.2 3.691-3.44 6.765-2.01 9.125 1.02 2.702 4.12 4.617 7.75 5.62-.18.8-.34 1.6-.48 2.41a40.09 40.09 0 00-.49 6.091c0 18.731 13.52 34.401 31.63 38.371 0 .814-.1 1.637-.21 2.54-.61 5.759-2.39 12.002-7.06 13.526-4.37-1.484-13.11 5.075-15.07 6.977-1.97 1.906-8.92.203-15.28.419-6.37.215-8.52-1.687-8.52-1.687a36.286 36.286 0 00-.23 10.353c.66 6.347-4.58 6.563-4.58 6.563s1.09 9.098-1.27 13.742a15.347 15.347 0 00-1.75 8.69s7.42-.634 6.76 1.905c-.04.296-.03.598.05.887.07.288.2.561.39.8l-.08 2.423-1.01 33.525-1.96 19.986c-.49.146-.95.402-1.33.75-.37.345-.67.777-.86 1.255-1.77 4.01-4.62 9.35-6.86 13.437-9.1 5.493-22.777 15.684-18.91 25.479 5.68 14.389 13.77 12.487 18.56 10.785 4.8-1.7 13.38-15.011 13.38-15.011s2.85-5.291 5.02-5.291c1.17-.049 2.33-.172 3.48-.368v.368s-4.59 17.981-3.06 22.423c1.53 4.441.22 10.15.22 10.15s-1.27 13.108.43 17.344c1.71 4.239-2.37 15.621-2.37 15.621s1.17.355 3.2.849c-.15.724-.33 1.524-.52 2.414-2.68 12.6-7.48 41.365-2.01 65.042 0 0 3.05 12.69 3.48 16.089.44 3.403 3.06 6.347 1.28 13.958-1.79 7.615 3.48 21.586 3.48 21.586s2.63 13.324 1.1 19.451c-1.53 6.128 15.94 74.865 15.94 74.865l2.85-.405.64 2.447 2.84 10.914.3 1.191a9.44 9.44 0 00-5.09 3.2s-7.64 17.344-17.25 22.203a117.834 117.834 0 00-8.67 4.81c-8.58 5.228-15.94 11.521-3.44 11.687 13.7.176 36.21.9 44.28 1.169 1.72.926 4.61 1.457 9.1 1.367 22.49-.418 54.38-2.751 55.04-4.859.32-1.026-1.02-3.21-2.47-5.175-1.45-1.968-3.22-3.923-3.22-3.923l-.65-19.249s-1.83-1.65-4.67-3.921l-.1-1.344-1.43-18.565-.19-2.536a7.302 7.302 0 002.67-1.155l1.55-19.226s9.38-32.138-2.63-63.658c0 0-10.47-21.775-7.64-29.606l.45-16.709s5.01-19.681 7.42-24.959a135.272 135.272 0 007.49-25.227c8.61-13.629 7.2-31.723 7.2-31.723l6.11-19.033 8.52-24.311s2.41-14.808 3.28-17.765c.88-2.958 0-19.033 0-19.033s7.39-58.623 1.22-81.527v-.876h.06v-1.268c.1-.113 6.72-6.991 3.69-8.883-2.55-1.573-7.12-8.604-10.6-12.803a79.83 79.83 0 01-1.28-1.483c4.18-3.21 7.74-7.15 10.51-11.625 1.06-1.739 2.38-3.807 4.46-3.897 1.12.027 2.21.385 3.12 1.029 16.01 9.557 18.58 33.449 35.45 41.482a25.337 25.337 0 0011.34 2.327 25.27 25.27 0 0011.18-2.974l-1.68-.408zm-128.03 382.117l-.14 1.268c-.56.193-1.09.458-1.59.787 0 0-2.19 11.206-3.5 12.056-.68.856-1.23 1.816-1.62 2.841l-.31-.571c-.11.229-.22.458-.32.697l-.59-1.065-.16-1.268-3.64-28.055c-.31-4.1-1.2-17.676.1-24.809 1.53-8.461 1.27-38.067-8.52-49.903 0 0-4.58-10.788-.43-17.766l.65-44.004 1.52-1.487.22 40.605a40.946 40.946 0 009.83 23.272l1.54 21.354s1.27 23.262 5.23 36.164v19.883s1.06.179 2.75.422l-.26 2.536-.76 7.043z"/>
  <path fill="#CF6F80" d="M1130.73 487.839l-9.13 20.304-3.37 1.966-22.73 13.26s-28.64-2.751-29.48-3.173c-.84-.418-2.19-24.666 5.21-29.768.41-.289.86-.518 1.34-.67 4.55-1.524 6.28-7.768 6.88-13.527.09-.85.15-1.676.19-2.539.18-2.695.18-5.401 0-8.096 0 0 6.95-6.928 15.28-14.097 14.75-12.69 33.84-26.077 26.51-3.247a75.795 75.795 0 00-2.97 12.611 35.287 35.287 0 00-.33 2.907c-.9 11.243 2.63 17.307 6.18 20.53.38.356.78.661 1.16.953a13.982 13.982 0 005.26 2.586zM1096.78 929.416l-3.19 1.474-21.43-4.86-1.9-7.565-2.77-10.91-1.91-7.539h27.49l3.54 28.082.17 1.318z"/>
  <path fill="#000" d="M1093.59 930.89l-21.43-4.86-1.9-7.614c8.12-2.423 19.94 4.391 19.94 4.391-.77 2.689 5.33 4.873 6.37 5.238l.17 1.272-3.15 1.573zM1103.78 941.256l-15.37 15.01-5.42 5.291-2.94-.099c-5.54-3.097 1.64-10.622 6.44-14.798.94-.823 1.79-1.51 2.44-2.018 3.44-2.675 6.66-10.303 8.72-14.858l6.13 11.472z" opacity=".1"/>
  <path fill="#000" d="M1097.65 929.784l6.13 11.422-15.37 15.01-5.42 5.341-2.94-.099c-5.54-3.097 1.64-10.622 6.44-14.798.94-.823 1.79-1.51 2.44-2.018 3.44-2.675 6.66-10.303 8.72-14.858zM1132 930.89l-28.22-9.517.84-8.032c7.35-2.54 20.15 6.685 26.99 12.281l.39 5.268z" opacity=".1"/>
  <path fill="#3F3D56" d="M1103.78 942.524l-15.37 15.01-5.42 5.295s-29.5-1.056-45.92-1.272c-12.15-.162-5.01-6.459 3.33-11.684 2.93-1.842 6-3.541 8.43-4.809 9.33-4.86 16.75-22.207 16.75-22.207 7.01-8.882 24.62 1.268 24.62 1.268-.85 2.958 6.58 5.291 6.58 5.291l7 13.108z"/>
  <path fill="#000" d="M1088.41 957.534l-5.42 5.291s-29.5-1.052-45.92-1.268c-12.15-.166-5.01-6.459 3.33-11.687 4.5 1.016 9.01 3.173 10.54 7.614l37.47.05z" opacity=".1"/>
  <path fill="#CF6F80" d="M1132 930.89l-28.22-9.517.84-8.033.72-7.017.98-9.48h23.13l.77 10.217 1.39 18.562.39 5.268z"/>
  <path fill="#3F3D56" d="M1142.4 959.237c-.63 2.105-31.62 4.442-53.47 4.86-18.97.368-8.69-10.735-2.44-16.165.94-.827 1.79-1.511 2.44-2.019 4.88-3.807 9.33-17.562 10.61-18.399 1.27-.84 3.4-12.056 3.4-12.056 9.55-6.775 33.3 15.432 33.3 15.432l.64 19.249s1.63 1.839 3.13 3.92 2.7 4.149 2.39 5.178z"/>
  <path fill="#000" d="M1142.4 959.237c-.63 2.105-31.62 4.441-53.47 4.86-18.97.368-8.69-10.735-2.44-16.166a28.184 28.184 0 0111.99 9.603h24.4s11.76-1.699 17.13-3.475c1.4 1.968 2.7 4.149 2.39 5.178zM1092.91 900.016c.14 2.324.26 3.808.26 3.808l-25.68 3.731-1.91-7.539h27.33zM1130.22 907.06c-6.28 1.736-19.45.063-24.88-.737l.98-9.48h23.14l.76 10.217z" opacity=".1"/>
  <path fill="#3F3D56" d="M1131.58 820.495c11.66 31.52 2.55 63.662 2.55 63.662l-1.49 19.249c-5.31 4.225-29.7 0-29.7 0v-19.883c-3.82-12.906-5.1-36.165-5.1-36.165l-1.49-21.356a41.64 41.64 0 01-9.55-23.272l-.21-40.603-1.48 1.484-.64 43.991c-4.03 6.981.43 17.766.43 17.766 9.55 11.84 9.76 41.442 8.27 49.906-1.49 8.461 0 26.011 0 26.011l-29.07 4.225s-16.98-68.724-15.49-74.865c1.49-6.14-1.06-19.451-1.06-19.451s-5.09-13.958-3.39-21.573c1.69-7.611-.86-10.568-1.28-13.957-.42-3.386-3.4-16.076-3.4-16.076-5.29-23.677-.63-52.443 1.96-65.043.83-4.049 1.44-6.433 1.44-6.433s78.94-22.84 92.31-3.807c1.58 2.3 2.8 4.83 3.61 7.498 6.53 20.57-4.95 52.762-7.02 57.432-2.32 5.278-7.2 24.945-7.2 24.945l-.43 16.713c-2.75 7.827 7.43 29.602 7.43 29.602z"/>
  <path fill="#6C63FF" d="M1111.2 852.865a.85.85 0 100-1.699c-.47 0-.86.378-.86.849 0 .469.39.85.86.85zM1068.96 874.079a.85.85 0 100-1.699c-.47 0-.86.381-.86.849 0 .472.39.85.86.85zM1066 860.692c.47 0 .86-.378.86-.85a.86.86 0 00-.86-.85.85.85 0 000 1.7zM1071.84 861.748a.85.85 0 000-1.703c-.48 0-.86.381-.86.853 0 .468.38.85.86.85zM1069.34 868.917a.85.85 0 10-.001-1.701.85.85 0 00.001 1.701zM1107.6 866.823a.85.85 0 000-1.703.86.86 0 00-.86.853c0 .468.39.85.86.85zM1125.42 871.682a.85.85 0 100-1.7.85.85 0 000 1.7zM1131.15 865.973a.85.85 0 10-.001-1.703.85.85 0 00.001 1.703zM1112.9 862.597a.85.85 0 100-1.699.85.85 0 100 1.699zM1078.29 856.799a.85.85 0 000-1.7c-.47 0-.86.378-.86.85 0 .468.39.85.86.85zM1085.37 861.748a.85.85 0 000-1.703.86.86 0 00-.86.853c0 .468.39.85.86.85zM1073.2 883.217a.851.851 0 000-1.703.852.852 0 100 1.703zM1076.12 893.467c.47 0 .86-.378.86-.849 0-.469-.39-.85-.86-.85a.85.85 0 100 1.699zM1085.74 897.046a.85.85 0 000-1.7c-.48 0-.86.382-.86.85 0 .471.38.85.86.85zM1079.98 897.693a.85.85 0 10-.001-1.699.85.85 0 00.001 1.699zM1074.89 902.529a.85.85 0 10-.001-1.701.85.85 0 00.001 1.701zM1079.14 868.064a.85.85 0 10-.001-1.697.85.85 0 00.001 1.697zM1079.14 878.457a.85.85 0 100-1.699.85.85 0 000 1.699zM1084.53 885.299a.85.85 0 000-1.703.86.86 0 00-.86.853c0 .468.39.85.86.85zM1079.64 888.382a.85.85 0 10-.001-1.701.85.85 0 00.001 1.701zM1069.8 902.529a.85.85 0 000-1.699c-.47 0-.86.378-.86.849 0 .468.39.85.86.85zM1084.9 890.171a.851.851 0 000-1.703.86.86 0 00-.86.85c0 .471.39.853.86.853zM1125.42 859.842a.85.85 0 100-1.698.85.85 0 000 1.698zM1117.04 871.682c.47 0 .86-.381.86-.849 0-.472-.39-.85-.86-.85s-.85.378-.85.85c0 .468.38.849.85.849zM1111.2 889.232a.85.85 0 000-1.703.86.86 0 00-.86.853c0 .468.39.85.86.85zM1109.29 900.866a.85.85 0 100-1.7.85.85 0 000 1.7zM1119.27 864.284a.85.85 0 10-.001-1.699.85.85 0 00.001 1.699zM1116.19 876.758a.85.85 0 10-.001-1.701.85.85 0 00.001 1.701zM1118.74 886.148a.85.85 0 100-1.699.85.85 0 00-.86.85c0 .468.38.849.86.849zM1105.37 895.701a.85.85 0 100-1.698.85.85 0 000 1.698zM1112.9 892.618a.85.85 0 00.86-.85c0-.468-.38-.85-.86-.85a.85.85 0 000 1.7zM1110.36 895.157a.85.85 0 10-.001-1.701.85.85 0 00.001 1.701zM1125.42 891.462a.85.85 0 10-.001-1.697.85.85 0 00.001 1.697zM1125.42 894.32a.85.85 0 10-.001-1.701.85.85 0 00.001 1.701zM1117.04 900.866c.47 0 .86-.381.86-.849 0-.469-.39-.85-.86-.85a.85.85 0 100 1.699zM1114.6 903.379a.85.85 0 000-1.699c-.47 0-.86.381-.86.849 0 .468.39.85.86.85zM1120.43 895.701a.85.85 0 100-1.698.85.85 0 000 1.698zM1113.74 900.03c.48 0 .86-.382.86-.85a.85.85 0 00-.86-.85.85.85 0 000 1.7zM1128.58 889.232a.85.85 0 000-1.703.86.86 0 00-.86.853c0 .468.39.85.86.85zM1130.3 894.32a.85.85 0 000-1.703.86.86 0 00-.86.85c0 .472.39.853.86.853zM1117.88 892.618c.47 0 .86-.379.86-.85a.86.86 0 00-.86-.85.85.85 0 000 1.7zM1120.43 901.261a.851.851 0 000-1.703.851.851 0 000 1.703zM1125.42 900.03a.85.85 0 10-.001-1.701.85.85 0 00.001 1.701zM1124.57 903.379a.85.85 0 000-1.699c-.47 0-.86.381-.86.849 0 .468.39.85.86.85zM1120.43 904.229a.85.85 0 10-.001-1.699.85.85 0 00.001 1.699zM1124.57 882.709a.85.85 0 100-1.699c-.47 0-.86.378-.86.85 0 .468.39.849.86.849zM1066.09 889.318c.47 0 .86-.378.86-.85a.858.858 0 00-.86-.849.85.85 0 100 1.699zM1066.09 892.176a.86.86 0 00.86-.853.86.86 0 00-.86-.85.85.85 0 000 1.703zM1069.25 887.101a.851.851 0 10-.002-1.702.851.851 0 00.002 1.702zM1071.82 897.046a.85.85 0 10-.001-1.699.85.85 0 00.001 1.699zM1070.97 892.176a.851.851 0 10-.002-1.702.851.851 0 00.002 1.702zM1066.09 897.885c.47 0 .86-.381.86-.849 0-.472-.39-.85-.86-.85s-.85.378-.85.85c0 .468.38.849.85.849zM1065.24 880.578a.851.851 0 000-1.703.851.851 0 000 1.703z"/>
  <path fill="#000" d="M1082.77 689.812l2.13 64.714 2.33-1.703 1.7-66.616-6.16 3.605z" opacity=".1"/>
  <path fill="#CF6F80" d="M1046.92 602.675s-14.64-13.755-17.82-6.343c-3.19 7.409-9.99 19.452-9.99 19.452l16.13 15.225s2.77-5.291 4.88-5.291c2.78-.255 5.55-.68 8.27-1.268l-1.47-21.775z"/>
  <path fill="#CF6F80" d="M1056.89 545.576l-9.77 73.165-3.66-5.596-12.25-18.718 1.91-20.099.98-33.522.29-10.038 22.5 14.808z"/>
  <path fill="#000" d="M1121.4 448.289a69.814 69.814 0 00-3.31 15.518 39.475 39.475 0 01-29.69 13.426c-3-.003-5.99-.345-8.91-1.015.34-3.519.39-7.057.12-10.582 0 0 53.25-53.093 41.79-17.347z" opacity=".1"/>
  <path fill="#CF6F80" d="M1127.86 435.36a39.082 39.082 0 01-9.44 25.542 39.797 39.797 0 01-13.28 10.088 39.596 39.596 0 01-19.27 3.631 39.509 39.509 0 01-18.65-6.061 39.393 39.393 0 01-13.42-14.263 39.322 39.322 0 01-4.4-25.028 39.335 39.335 0 0114.51-24.793 39.566 39.566 0 0127.55-8.364 39.518 39.518 0 0125.92 12.514 39.24 39.24 0 0110.48 26.734z"/>
  <path fill="#000" d="M1045.43 550.853c-4.67-3.96-9.91-7.498-11.33-10.047l.29-10.038 22.5 14.808-9.77 73.165-3.6-5.596c.2-3.808.66-7.413 1.55-9.202 2.55-5.075.64-12.902.64-15.441 0-2.536 3.6-6.559 3.38-8.249-.23-3.542-.66-7.07-1.27-10.569-.9-4.023 3.34-13.958-2.39-18.831zM1138.8 691.803v.113s-27.8-4.441-49.45 3.174c-17.74 6.243-40.35 1.397-47.91-.545.83-4.049 1.44-6.433 1.44-6.433s78.94-22.84 92.31-3.807c1.58 2.3 2.8 4.83 3.61 7.498zM1130.73 487.842l-9.13 20.301-26.1 15.226s-28.64-2.752-29.48-3.173c-.84-.418-2.19-24.666 5.21-29.768-2.08 5.862-4.36 17.765 11.12 18.768a64.26 64.26 0 0041.92-24.859 14.685 14.685 0 006.46 3.505z" opacity=".1"/>
  <path fill="#30C574" d="M1164.68 528.445l-.43 9.516-25.46 151.419s-27.79-4.441-49.44 3.174c-21.64 7.611-50.5-1.272-50.5-1.272s4.03-11.418 2.34-15.644c-1.69-4.225-.43-17.347-.43-17.347s1.27-5.709-.21-10.15c-1.47-4.442 2.97-22.423 2.97-22.423s-1.06-19.235 1.49-24.311c2.54-5.075.64-12.905.64-15.441 0-2.539 3.6-6.563 3.38-8.249a98.66 98.66 0 00-1.27-10.569c-.84-4.023 3.4-13.957-2.33-18.83-5.73-4.873-12.31-9.085-11.68-11.625.64-2.539-6.57-1.902-6.57-1.902-.27-2.997.31-6.008 1.7-8.68 2.33-4.644 1.27-13.742 1.27-13.742s5.09-.216 4.46-6.562c-.42-3.442-.35-6.928.22-10.353 0 0 2.11 1.905 8.27 1.689 6.16-.216 12.94 1.484 14.84-.421 1.91-1.902 10.41-8.461 14.65-6.978-.34.648-10.48 20.733 9.77 21.978a64.409 64.409 0 0024.27-8.816 64.037 64.037 0 0018.81-17.629s2.33-2.536 9.98 5.722c7.63 8.262 14.2 5.075 14.2 5.075l8.49.638s-5.51 4.643-2.12 7.813c.72.698 1.38 1.438 2 2.221 3.4 4.202 7.86 11.229 10.31 12.803 2.95 1.918-3.62 8.896-3.62 8.896z"/>
  <path fill="#CF6F80" d="M1029.73 605.633s-31.191 15.226-25.68 29.602c5.52 14.376 13.37 12.487 18.04 10.788 4.68-1.703 13.15-15.014 13.15-15.014l-5.51-25.376z"/>
  <path fill="#000" d="M1117.68 520.528c0 1.358-7.96 18.489 0 22.927 7.96 4.441 0-22.927 0-22.927zM1054.98 514.59s-11.25 12.052-6.59 13.324c4.66 1.268 6.59-13.324 6.59-13.324z" opacity=".1"/>
  <path fill="#CF6F80" d="M1130.73 538.164s4.87 30.037 5.09 38.919c.22 8.883 1.49 23.259 1.49 23.259s3.61 34.259-1.91 48.217c-5.51 13.958-4.67 29.184-4.67 29.184s-16.13 31.304-18.46 34.478c-2.33 3.17 1.91 33.207 18.88 20.517 16.97-12.69 14.86-40.4 14.86-40.4l5.94-19.037 8.28-24.311s2.33-14.807 3.18-17.765c.85-2.954 0-19.033 0-19.033s9.97-81.424-3.4-89.888c-13.37-8.464-29.28 15.86-29.28 15.86z"/>
  <path fill="#000" d="M1130.73 548.53s19.95-21.785 26.1-19.883c6.15 1.905 7.85 1.066 7.85 1.066s.84-12.053-8.27-16.494c-9.12-4.442-19.1-17.981-26.74-1.906-7.64 16.079 1.06 37.217 1.06 37.217z" opacity=".1"/>
  <path fill="#30C574" d="M1130.73 547.262s19.95-21.785 26.1-19.883c6.15 1.902 7.85 1.066 7.85 1.066s.84-12.053-8.27-16.494c-9.12-4.441-19.1-17.981-26.74-1.905-7.64 16.078 1.06 37.216 1.06 37.216z"/>
  <path fill="#000" d="M1157.97 506.759c-1.45 1.255-3 2.403-4.62 3.439a34.37 34.37 0 01-13.35 5.075 29.92 29.92 0 01-12.05-.67 29.319 29.319 0 01-9.73-4.505 24.65 24.65 0 01-7.36-8.162c-.26-.455-.49-.913-.7-1.367-4.28-8.986-3.14-19.681-5.02-29.592-.14-.697-.29-1.408-.46-2.108a34.468 34.468 0 00-9.8-17.344c-6.81-6.562-15.99-10.545-25.46-15.495-5.52-2.891-10.19-5.188-16.45-6.001a21.284 21.284 0 01-3.61-.773 39.308 39.308 0 016.81-16.664 39.359 39.359 0 0113.54-11.903 39.578 39.578 0 0117.44-4.644 39.58 39.58 0 0117.69 3.579 39.376 39.376 0 0114.24 11.057 39.22 39.22 0 017.81 16.221 39.062 39.062 0 01-.25 17.991 39.168 39.168 0 01-8.26 15.996 40.176 40.176 0 00-.33 2.905c-.89 11.242 2.63 17.31 6.19 20.533.38.355.77.657 1.15.949 0 0 2.33-2.536 9.97 5.723 7.64 8.262 14.21 5.075 14.21 5.075l8.49.638s-5.51 4.643-2.12 7.813c.73.697 1.41 1.444 2.03 2.234z" opacity=".1"/>
  <path fill="#512E4E" d="M1044.79 413.077c2.84-3.362 7.07-5.165 11.03-7.106 3.96-1.942 8.02-4.339 9.93-8.299 3.33-6.878-.64-16.686 5.09-21.838 2.74-2.473 6.76-2.778 10.45-2.778a56.74 56.74 0 0117.83 2.36c8.78 2.908 16.11 8.882 23.93 13.868 7.82 4.989 17.02 8.999 26.11 7.223 5.31-1.029 10.98-3.96 15.76-1.434 2.88 1.52 4.52 4.707 5.25 7.877.86 3.814.67 7.787-.56 11.498-2.07 6.231-6.93 11.243-9.06 17.447-.79 2.297-1.16 4.985.11 7.057 1.49 2.396 4.66 3.156 7.49 3.057 2.82-.103 5.62-.85 8.44-.535 8.07.913 12.73 10.088 12.73 18.184 0 8.096-2.81 15.989-2.9 24.108-.12 11.103 5.18 21.775 12.73 29.934a60.331 60.331 0 0031.57 17.931 23.915 23.915 0 01-10.86 2.978c-3.81.113-7.59-.687-11.03-2.33-16.38-8.033-18.89-31.913-34.37-41.469a5.308 5.308 0 00-3.03-1.029c-2.02.129-3.3 2.157-4.34 3.884-5.84 9.732-15.65 17.423-26.9 19.109-11.26 1.69-23.66-3.389-29.14-13.337-5.49-9.948-3.52-22.09-6.18-33.068-4.62-19.033-19.57-24.616-35.23-32.838-5.51-2.891-10.18-5.188-16.45-6.001-7.98-1.029-15.41-6.181-8.4-14.453z"/>
  <g opacity=".1">
    <path fill="#000" d="M1067.8 394.17c3-6.19.1-14.758 3.64-20.162-.41.259-.8.551-1.16.877-5.66 5.138-1.69 14.947-5.03 21.824-.38.744-.83 1.444-1.36 2.092a13.547 13.547 0 003.91-4.631zM1210.81 528.764c-16.4-8.033-18.91-31.913-34.45-41.482a5.327 5.327 0 00-3.03-1.026c-1.63.099-2.76 1.434-3.69 2.855.36-.176.74-.286 1.14-.319 1.09.026 2.15.385 3.03 1.029 15.55 9.566 18.06 33.446 34.45 41.479a23.872 23.872 0 0011.02 2.326c3.8-.113 7.52-1.132 10.85-2.974-.75-.162-1.51-.342-2.26-.531a23.97 23.97 0 01-17.06-1.357zM1142.08 509.259c-11.24 1.689-23.65-3.399-29.12-13.334-5.48-9.938-3.52-22.107-6.18-33.067-4.63-19.037-19.58-24.62-35.24-32.842-5.5-2.904-10.18-5.188-16.43-6.001-7.64-1.003-14.99-6.002-8.59-14.048a15.79 15.79 0 00-2.22 2.144c-6.98 8.275.45 13.427 8.26 14.443 6.25.81 10.93 3.093 16.43 6.001 15.66 8.222 30.56 13.756 35.24 32.839 2.67 10.963.72 23.182 6.18 33.067 5.46 9.885 17.89 15.023 29.13 13.337a37.434 37.434 0 0021.54-11.953 36.567 36.567 0 01-19 9.414z" opacity=".1"/>
  </g>
  <path fill="url(#paint2_linear)" d="M236.483 987.571c-7.867-.903-18.982-8.603-25.946-13.958 3.463-2.018 5.755-3.415 5.755-3.415s-16.551-16.584-14.552-27.431c1.998-10.851-3.973-60.286-3.973-60.286s-9.268-7.018-4.303-24.882c4.966-17.868 4.966-22.333 4.966-22.333s-2.98-22.651-.993-28.068c1.985-5.421 1.998-17.298 1.998-17.298l3.96-40.97 2.138-15.329c3.604 11.75 9.638 19.514 19.097 12.915 21.847-15.315 5.628-65.398 5.628-65.398s-2.814-10.771-4.787-19.78l1.082-2.867s-.662-11.157 4.965-14.987c5.627-3.831 0-86.45 0-86.45l-1.871-50.095v-1.487a46.295 46.295 0 00-6.883-22.678 46.494 46.494 0 00-17.218-16.341l-1.349-.697a151.67 151.67 0 01-.23-1.395c-1.069-6.496-2.266-14.313-3.055-22.053-.089-.837-.166-1.663-.242-2.54 22.7-5.669 39.505-25.605 39.505-49.345a49.197 49.197 0 00-1.858-13.414c-.09-.328-.191-.66-.293-.976 3.03-3.02 5.513-3.897 5.742-1.928.331 2.868 2.813-.8 2.979-3.668.165-2.868.827-.8 2.546-.8 1.719 0 1.986-3.034-.662-4.617-2.648-1.587.497-3.353 1.273-3.668.777-.319.828-3.349 0-3.349a.932.932 0 01-.293-.09h-.089a4.619 4.619 0 01-.42-.216l-.522-.328-.14-.09-.573-.408c-1.515-1.076-3.259-2.536-3.259-2.536l.828-.634c.827-.634-.994-2.234-2.547-2.387h-.318c-1.553-.242-4.036-1.128-2.457-1.865.356-.166.509-.356.534-.558a.756.756 0 00-.28-.584 3.242 3.242 0 00-.763-.531l-.472-.216-.458-.153a3.83 3.83 0 00-.496-.103h-.93a35.952 35.952 0 01-6.251-2.207v-3.349l-2.788-1.295-2.317-1.016.827-3.083h-7.282l.993-2.715-3.348-.648-.789-.152v-1.269l-4.469-1.751v-1.916h-5.373l2.063-1.599h-4.138c-10.809-7.384-41.249-6.852-53.382-2.816-12.133 4.035-15.673 7.016-32.21 41.684-10.58 22.154 2.928 43.637 14.793 55.626.395.408.79.787 1.184 1.169l.166.166 1.057 1.002.102.086 1.132 1.029.128.103.993.863.14.113 1.069.876.968.747.165.13c.65.494 1.274.926 1.847 1.268l.178.113.764.494h.063c.255.166.509.306.751.445l.153.09.573.305h.127l.599.265h.101l.421.153h.114c.138.04.278.07.42.09h.446a.633.633 0 00.229-.103 15.896 15.896 0 014.914-1.573l1.274 1.015c.611.495 1.273.963 1.884 1.421.153.926.28 1.865.395 2.841a50.933 50.933 0 01-1.197 18.579c-.127.468-.267.939-.408 1.407a25.057 25.057 0 00-13.75 10.443c-14.233 22.017-20.522 35.099-20.522 35.099s-2.101 14.857-5.691 18.386c-3.59 3.528 6.62 66.666 6.62 66.666s-12.247 24.237-1.273 28.553c10.974 4.311-.993 7.813-.993 7.813s3.31 7.336-2.979 7.97c-6.289.634-9.931 11.814-9.931 11.814l-19.516 21.051 4.914 1.676c-.42.658-.853 1.345-1.273 2.118-6.519 10.861-16.373 32.991-9.893 59.639 9.269 38.282 11.917 46.567 11.586 53.292-.331 6.725 10.58 33.184 7.931 39.235-2.648 6.051-4.125 27.116.42 32.546 4.545 5.431-1.73 8.604-1.73 8.604s6.772 7.983 3.386 13.4c-3.387 5.417 4.213 72.415 4.213 72.415s12.248 17.231 11.586 22.652c-.662 5.417-6.289 8.298-1.273 10.532 5.016 2.23 2.979 5.417 2.979 5.417l1.273.103a46.29 46.29 0 00-3.208 3.157 30.054 30.054 0 00-2.712 3.402c-.42.631-.795 1.295-1.12 1.978-4.456 9.777 7.409 17.227 7.409 17.227H124.83c11.522.46 44.089 1.28 59.442-2.53l.281.17s58.245 3.13 69.818-4.86c11.572-7.975-5.64-12.875-17.888-14.269zm-59.646 2.805l-.42-.066-.662-.113h-.471l-.738-.113h-.306c-.547-.076-1.095-.153-1.629-.202a26.738 26.738 0 01-7.537-2.311c-1.681-.75-3.387-1.649-5.093-2.615l3.361-.077c.878 0 1.744 0 2.546-.086l1.515-.076c3.82 0 9.294.508 10.733 3.083a13.132 13.132 0 00-1.299 2.563v.013z"/>
  <path fill="#FFCCD0" d="M208.347 482.233c-.954 0-76.069 14.273-57.29-11.103a45.447 45.447 0 007.638-15.913 52.283 52.283 0 001.146-18.476 64.995 64.995 0 00-6.238-21.443s62.065-13.643 52.198-3.173c-4.303 4.567-4.189 18.515-2.763 32.765.764 7.701 1.91 15.478 2.941 21.938 1.452 8.995 2.674 15.405 2.368 15.405z"/>
  <path fill="#3F3D56" d="M144.691 970.085s19.415 17.841 31.192 19.235c11.776 1.398 28.327 6.46 17.187 14.39-11.14 7.93-67.158 4.84-67.158 4.84s-12.973-8.46-6.047-19.113c6.926-10.659 24.826-19.352 24.826-19.352z"/>
  <path fill="#000" d="M193.07 1003.71a20.624 20.624 0 01-6.977 2.7c-18.651 4.43-60.181 2.14-60.181 2.14s-12.973-8.46-6.047-19.114c6.926-10.658 24.826-19.351 24.826-19.351s19.415 17.841 31.192 19.235l1.668.216c11.585 1.65 26.137 6.612 15.519 14.174z" opacity=".1"/>
  <path fill="#000" d="M193.07 1003.71a20.853 20.853 0 01-6.977 2.71l-1.273-.07s-11.165-7.257-7.244-16.814c11.56 1.65 26.112 6.612 15.494 14.174z" opacity=".1"/>
  <path fill="#3F3D56" d="M206.119 967.904s19.416 17.762 31.192 19.223c11.777 1.46 28.327 6.472 17.188 14.403-11.141 7.93-67.158 4.82-67.158 4.82s-12.973-8.439-6.047-19.034c6.925-10.596 24.825-19.412 24.825-19.412z"/>
  <path fill="#000" d="M206.119 967.904s19.416 17.762 31.192 19.223c11.777 1.46 28.327 6.472 17.188 14.403-11.141 7.93-67.158 4.82-67.158 4.82s-12.973-8.439-6.047-19.034c6.925-10.596 24.825-19.412 24.825-19.412z" opacity=".1"/>
  <path fill="#3F3D56" d="M187.022 980.909c-2.546 1.866-8.657 2.842-16.054 3.273h-.114l-1.388.077c-.815 0-1.655.076-2.546.089-18.626.594-42.65-1.537-42.65-1.537s1.91-3.17-2.865-5.39c-4.774-2.221.637-5.079 1.273-10.469.637-5.394-11.089-22.526-11.089-22.526s-7.32-66.616-4.061-72.01c3.26-5.39-3.259-13.32-3.259-13.32s6.048-3.174 1.668-8.568c-4.38-5.39-2.941-26.329-.395-32.357 2.547-6.024-7.957-32.357-7.639-39.019.319-6.658-2.227-14.907-11.14-52.973-6.225-26.648 3.247-48.549 9.51-59.36a60.123 60.123 0 014.813-7.26h60.792l1.541 14.264.076.786c.509 4.81 1.133 10.632 1.833 17.321 8.492 80.474 29.091 283.635 21.694 288.979z"/>
  <path fill="#000" d="M187.022 980.909c-2.762 1.992-9.484 2.968-17.556 3.349a43.345 43.345 0 00-6.365.09s-.955-2.171-12.413-10.151c-11.459-7.983 0-26.013 0-26.013l-11.917-48.536s-2.992-12.955-.446-20.57c2.547-7.611-5.487-9.516-5.487-9.516s8.034-5.076 0-11.738c-8.033-6.662-9.153-31.086-9.153-31.086s-11.459-15.229-6.366-20.304c5.092-5.075-3.183-17.128-3.183-17.128s-12.095-19.033-10.822-25.38c1.274-6.343 18.461-4.122 13.368-24.423-5.092-20.305 26.29 7.611 26.29 7.611l20.523-72.505c6.659 62.736 31.535 300.515 23.527 306.3z" opacity=".1"/>
  <path fill="#3F3D56" d="M217.896 969.806s-34.375 21.572-36.603 17.447c-1.387-2.536-6.595-3.058-10.325-3.071h-.114c-2.216 0-3.883.166-3.883.166s-.955-2.171-12.413-10.151c-11.459-7.983 0-26.013 0-26.013l-11.917-48.536s-3.043-12.955-.496-20.57c2.546-7.611-5.488-9.517-5.488-9.517s8.034-5.075 0-11.737c-8.033-6.658-9.153-31.086-9.153-31.086s-11.458-15.229-6.366-20.304c5.092-5.075-3.183-17.128-3.183-17.128s-12.094-19.033-10.822-25.38c1.274-6.343 0-5.075-5.092-25.376-3.82-15.302 6.06-49.704 11.178-65.717 1.668-5.241 2.827-8.514 2.827-8.514l47.373 9.503 47.474 9.53 1.274 16.813-.357 2.665-6.365 46.949-3.82 40.745s0 11.738-1.909 17.128c-1.91 5.394.954 27.916.954 27.916s0 4.441-4.774 22.206c-4.774 17.766 4.138 24.743 4.138 24.743s5.729 49.173 3.819 59.957c-1.91 10.785 14.043 27.332 14.043 27.332z"/>
  <path fill="#000" d="M148.039 851.8c4.775.8 29.435 1.268 22.917 4.288-6.519 3.021-22.917-4.288-22.917-4.288zM145.328 867.825c1.91-.166 10.669-3.973 13.049-3.654 2.381.315 5.577-.674 8.441 0 2.865.67 8.225 2.536 5.22 3.668-3.005 1.128-9.294.149-12.91 1.268-3.615 1.115-13.8-1.282-13.8-1.282zM119.229 861.164c1.273-.166 11.14-2.702 10.35 0-.789 2.701-10.35 0-10.35 0zM103.48 781.539c.955 1.268 6.518 13.958 9.23 13.958 2.712 0-9.23-13.958-9.23-13.958zM205.801 412.125c-4.303 4.567-4.188 18.515-2.762 32.765a51.305 51.305 0 01-13.101 1.7c-11.292 0-12.184-14.201-20.624-20.381-1.337-12.372-15.711-10.911-15.711-10.911s62.065-13.643 52.198-3.173z" opacity=".1"/>
  <path fill="#FFCCD0" d="M240.863 393.294a50.656 50.656 0 01-13.756 34.67 50.976 50.976 0 01-33.812 15.95 51.03 51.03 0 01-35.623-11.375 50.726 50.726 0 01-18.213-32.567 50.638 50.638 0 019.024-36.184 50.952 50.952 0 0131.393-20.275 51.076 51.076 0 0136.822 6.573 50.778 50.778 0 0122.383 29.874 50.59 50.59 0 011.782 13.334z"/>
  <path fill="#000" d="M208.347 482.233c-.954 0-76.069 14.273-57.29-11.104a45.438 45.438 0 007.638-15.913c15.189-4.833 33.802 3.223 33.802 3.223l8.594 6.347a29.436 29.436 0 014.952 2.041c1.388 8.996 2.61 15.406 2.304 15.406zM212.167 700.165l-.356 2.665c-2.025.684-11.331 3.26-33.586-5.838-3.577-1.458-7.995-3.184-12.897-5.076-15.799-6.024-36.78-13.612-52.109-19.033a3229.047 3229.047 0 00-16.945-6.014 60.05 60.05 0 014.812-7.257h60.792l1.541 14.26 47.475 9.48 1.273 16.813z" opacity=".1"/>
  <path fill="#FF6363" d="M192.434 459.707s-33.738-14.591-47.424 7.3c-13.687 21.888-19.734 34.893-19.734 34.893s-1.909 14.592-5.411 18.08c-3.501 3.492 6.366 66.301 6.366 66.301s-11.776 24.109-1.273 28.387c10.503 4.276-.955 7.777-.955 7.777s3.183 7.296-2.865 7.93c-6.047.634-9.548 11.738-9.548 11.738l-18.779 20.938s61.327 21.569 85.414 31.405c24.088 9.835 32.987 6.028 33.942 5.709.955-.315 15.596-40.287 15.596-40.287s-.637-11.103 4.774-14.911c5.411-3.807 0-85.968 0-85.968l-1.859-51.3a46.25 46.25 0 00-6.535-22.396 46.44 46.44 0 00-16.648-16.394 32.155 32.155 0 00-6.468-2.855l-8.593-6.347z"/>
  <path fill="#6C63FF" d="M225.853 547.262l6.684 11.737s-53.472 15.23-55.572.634c-.319-2.131 20.879-19.033 20.879-19.033l28.009 6.662z"/>
  <path fill="#000" d="M225.853 547.262l6.684 11.737s-53.472 15.23-55.572.634c-.319-2.131 20.879-19.033 20.879-19.033l28.009 6.662z" opacity=".7"/>
  <path fill="#000" d="M134.824 610.708s25.463-8.248 20.052-1.586c-5.411 6.662-20.052 1.586-20.052 1.586zM163.877 612.56s13.024 16.215 16.143 10.151c3.119-6.064-16.143-10.151-16.143-10.151zM239.081 379.96a32.725 32.725 0 00-4.481 5.669c-4.457 6.981-7.792 7.147-7.792 7.147s0 15.1-2.063 16.673c-2.062 1.573-13.851-6.688-14.004-8.743-.153-2.055-14.552-24.427-20.803 3.957l-1.171 23.006s-20.625 2.539-31.179 4.836a50.776 50.776 0 01-14.301-18.84 50.606 50.606 0 012.625-45.88 50.843 50.843 0 0116.358-17.098 51.052 51.052 0 0122.351-7.864 51.096 51.096 0 0123.503 3.07 50.904 50.904 0 0119.562 13.344 50.714 50.714 0 0111.382 20.723h.013z" opacity=".1"/>
  <path fill="#3F3D56" d="M206.438 329.495h3.985l-1.999 1.586h5.182v1.904l4.29 1.739v1.268l3.985.8-.955 2.689h7.002l-.802 3.057 4.775 2.184v3.326s4.774 2.22 6.365 2.22c1.591 0 4.227 1.434 2.546 2.221-1.68.787 1.273 1.749 2.661 1.902 1.388.153 3.183 1.749 2.381 2.387l-.789.634s4.29 3.641 5.092 3.641c.802 0 .789 3.021 0 3.336-.789.319-3.819 2.058-1.273 3.641 2.546 1.587 2.228 4.608.636 4.608-1.591 0-2.227-2.068-2.393.786-.165 2.855-2.546 6.509-2.865 3.655-.318-2.855-5.245.318-9.701 7.296-4.455 6.98-7.804 7.13-7.804 7.13s0 15.1-2.063 16.673c-2.062 1.573-13.851-6.672-14.004-8.74-.153-2.071-14.552-24.427-20.803 3.97l-1.158 22.993s-34.375 4.289-37.087 6.662c-2.711 2.373-43.502-30.455-27.588-64.93 15.914-34.475 19.313-37.433 30.988-41.442 11.674-4.01 40.994-4.556 51.396 2.804z"/>
  <path fill="#FFCCD0" d="M179.702 552.656s-.318 25.695-2.546 32.039c-2.228 6.346 15.277 65.666 15.277 65.666s14.005 31.279 11.458 40.921c-2.546 9.643.955 71.376 21.962 56.151 21.006-15.23 5.411-65.033 5.411-65.033s-6.684-27.737-6.684-31.149c0-3.416-7.002-54.819-7.002-54.819s-5.411-16.813-3.82-26.963c1.591-10.151 2.228-28.869 2.228-28.869l-36.284 12.056z"/>
  <path fill="#000" d="M201.027 504.439s-25.539 8.245-26.608 30.77c-1.07 22.522 0 24.424 0 24.424s38.066-19.033 55.572-.634l-1.796-49.803-27.168-4.757z" opacity=".1"/>
  <path fill="#FF6363" d="M203.573 504.439s-25.539 8.245-26.608 30.77c-1.07 22.522 0 24.424 0 24.424s38.066-19.033 55.572-.634l-1.795-49.803-27.169-4.757z"/>
  <g opacity=".1">
    <path fill="#000" d="M237.91 350.242c-.573.71 1.795 1.47 3.068 1.609.13.02.258.05.382.09.089-.773-1.821-1.673-3.094-1.673l-.356-.026zM229.355 345.508s1.171.545 2.546 1.092v-1.878l-2.546-1.169v1.955zM243.219 354.391l-.65.521s1.465 1.268 2.852 2.284l.484-.382c.802-.634-.955-2.221-2.381-2.387l-.305-.036zM224.58 340.015l2.865 1.294.471-1.829h-3.196l-.14.535zM187.392 400.868l-1.159 22.993s-34.374 4.289-37.086 6.662c-.84.751-5.411-1.955-10.809-7.066 6.442 6.738 12.375 10.469 13.355 9.606 2.712-2.374 37.087-6.662 37.087-6.662l1.158-22.993c3.654-16.647 10.185-15.85 14.87-11.927-4.685-5.497-13.011-10.443-17.416 9.387zM248.935 368.03c-2.546-1.587.471-3.323 1.273-3.641.802-.316.789-3.336 0-3.336a5.942 5.942 0 01-1.961-1.155c0 .836-.165 1.776-.585 1.955-.802.315-3.82 2.054-1.273 3.641 2.546 1.587 2.227 4.604.636 4.604-1.591 0-2.228-2.068-2.393.787-.166 2.858-2.547 6.509-2.865 3.654-.318-2.854-5.245.319-9.701 7.296-4.456 6.981-7.805 7.134-7.805 7.134s0 15.099-2.062 16.673c-1.439 1.079-7.473-2.54-11.14-5.507 1.872 2.765 11.789 9.477 13.686 8.043 1.897-1.434 2.063-16.673 2.063-16.673s3.348-.153 7.804-7.13c4.456-6.981 9.383-10.151 9.701-7.296.319 2.854 2.712-.8 2.865-3.655.153-2.855.802-.787 2.393-.787 1.592 0 1.91-3.02-.636-4.607zM218.367 336.944h3.45l.051-.152-3.208-.647-.293.799zM213.595 331.475v-.394h-.983l.983.394z" opacity=".1"/>
  </g>
  <path stroke="#FFD666" stroke-miterlimit="10" stroke-width="4" d="M246.108 722.448s104.83-158.689 228.322-68.598c123.493 90.09 153.834 147.193 257.073 115.47 103.235-31.723 99.405-94.077 180.885-71.147 81.478 22.93 109.702-52.15 109.702-52.15"/>
  <path fill="#6C63FF" d="M1032.06 615.936l-.01-.006c-5.71-2.45-12.32.172-14.78 5.855l-11 25.436c-2.46 5.683.17 12.275 5.88 14.725l.01.003c5.7 2.45 12.31-.169 14.77-5.852l11-25.436c2.46-5.683-.17-12.275-5.87-14.725z"/>
  <defs>
    <linearGradient id="paint0_linear" x1="725.644" x2="725.644" y1="722.6" y2="253.729" gradientUnits="userSpaceOnUse">
      <stop stop-color="gray" stop-opacity=".25"/>
      <stop offset=".54" stop-color="gray" stop-opacity=".12"/>
      <stop offset="1" stop-color="gray" stop-opacity=".1"/>
    </linearGradient>
    <linearGradient id="paint1_linear" x1="219101" x2="219101" y1="459980" y2="184617" gradientUnits="userSpaceOnUse">
      <stop stop-color="gray" stop-opacity=".25"/>
      <stop offset=".54" stop-color="gray" stop-opacity=".12"/>
      <stop offset="1" stop-color="gray" stop-opacity=".1"/>
    </linearGradient>
    <linearGradient id="paint2_linear" x1="33847.4" x2="33847.4" y1="561402" y2="187217" gradientUnits="userSpaceOnUse">
      <stop stop-color="gray" stop-opacity=".25"/>
      <stop offset=".54" stop-color="gray" stop-opacity=".12"/>
      <stop offset="1" stop-color="gray" stop-opacity=".1"/>
    </linearGradient>
  </defs>
</svg>
